<svg xmlns="http://www.w3.org/2000/svg" xmlns:v="https://svgstorm.com"
viewBox = "0 0 203 246"
width="203"
height="246">
<g fill="None" fill-opacity="0.0" stroke="#000000" stroke-opacity="0.00" stroke-width="0.3"><path d="
M 0.00 246.00 
L 66.00 246.00
C 59.17 217.41 16.81 203.66 19.00 171.00
C 19.03 170.50 19.00 170.00 19.00 170.00
C 16.64 166.80 17.60 157.28 19.00 154.00
C 18.82 153.58 19.03 152.50 19.00 152.00
C 17.97 137.23 32.25 115.96 46.00 111.00
C 46.44 110.84 47.00 111.00 47.00 111.00
C 48.14 109.17 49.83 108.20 52.00 108.00
C 52.50 107.95 53.00 108.00 53.00 108.00
C 54.67 105.82 58.42 105.62 61.00 105.00
C 63.09 104.49 64.70 104.18 67.00 104.00
C 68.66 103.71 70.68 102.86 73.00 103.00
C 73.50 103.03 74.58 103.18 75.00 103.00
C 81.92 100.06 90.97 102.52 99.00 102.00 C 107.03 101.48 116.81 102.00 125.00 102.00
C 126.33 102.00 127.67 102.02 129.00 102.00
C 129.97 101.87 132.54 101.26 134.00 101.00
C 136.69 100.18 139.23 99.65 142.00 99.00
C 145.19 97.91 148.49 94.77 152.00 94.00
C 152.48 93.90 153.00 94.00 153.00 94.00
C 154.40 91.86 156.33 90.10 159.00 90.00
C 158.41 92.84 160.22 96.98 158.00 99.00
C 158.00 99.50 157.97 100.50 158.00 101.00
C 159.16 117.56 150.18 133.58 134.92 142.92 C 119.66 152.26 98.47 151.75 77.98 151.98 C 57.48 152.20 54.14 176.70 62.98 193.02 C 71.81 209.34 76.03 228.30 70.00 246.00
L 203.00 246.00
L 203.00 0.00
L 0.00 0.00
L 0.00 246.00
M 198.00 5.00 
C 197.79 5.39 198.00 6.50 198.00 7.00
C 198.00 11.73 197.70 16.10 196.00 20.00
C 196.03 20.50 196.00 21.00 196.00 21.00
C 195.87 26.50 193.31 32.88 190.00 37.00
C 189.89 37.47 190.00 38.00 190.00 38.00
C 184.89 51.01 167.75 68.44 153.00 69.00
C 152.50 69.02 152.00 69.00 152.00 69.00
C 148.18 72.10 141.05 72.00 136.00 72.00
C 135.50 72.00 135.00 72.00 135.00 72.00
C 128.16 77.06 112.73 71.37 104.00 73.00 C 95.27 74.63 81.46 71.87 72.99 73.99 C 64.53 76.12 56.38 77.99 49.30 82.30 C 42.23 86.62 37.03 90.40 31.75 96.75 C 26.48 103.11 22.63 108.80 19.23 116.23 C 15.83 123.66 12.46 131.88 11.00 140.00
C 5.81 136.79 6.28 127.17 5.01 119.99 C 3.73 112.81 3.73 101.51 4.00 94.00 C 4.27 86.49 5.97 78.68 7.98 71.98 C 9.98 65.27 13.21 59.26 16.31 53.31 C 19.40 47.35 23.64 44.00 28.25 39.25 C 32.85 34.49 37.93 30.06 44.00 28.00
C 44.50 27.95 45.00 28.00 45.00 28.00
C 49.93 20.11 62.80 21.36 71.67 18.67 C 80.55 15.98 95.48 17.18 106.00 17.00 C 116.52 16.82 131.17 16.74 142.00 17.00 C 152.83 17.26 164.27 15.69 174.07 13.07 C 183.88 10.46 191.03 5.53 199.00 1.00
C 198.72 2.28 199.76 4.50 198.00 5.00 Z"/>
</g>
<g fill="None" fill-opacity="0.0" stroke="#F1F9FE" stroke-opacity="0.07" stroke-width="0.3"><path d="
M 45.00 28.00 
C 50.40 24.60 57.88 22.49 64.00 21.00
C 79.85 17.14 97.21 18.00 114.00 18.00
C 124.67 18.00 135.33 18.00 146.00 18.00
C 164.74 18.00 183.26 13.57 198.00 2.00
C 198.00 3.00 198.00 4.00 198.00 5.00
C 199.76 4.50 198.72 2.28 199.00 1.00
C 191.03 5.53 183.88 10.46 174.07 13.07 C 164.27 15.69 152.83 17.26 142.00 17.00 C 131.17 16.74 116.52 16.82 106.00 17.00 C 95.48 17.18 80.55 15.98 71.67 18.67 C 62.80 21.36 49.93 20.11 45.00 28.00 Z"/>
</g>
<g fill="None" fill-opacity="0.0" stroke="#1A81E8" stroke-opacity="0.92" stroke-width="0.3"><path d="
M 146.00 18.00 
C 135.94 18.97 123.99 18.97 114.00 18.00
C 97.21 18.00 79.85 17.14 64.00 21.00
C 106.54 16.98 158.36 29.41 196.00 5.00
C 196.34 16.80 192.35 29.07 187.08 39.08 C 181.80 49.08 175.46 54.76 166.25 61.25 C 157.04 67.74 141.79 68.21 133.00 72.00
C 133.50 72.00 134.50 72.00 135.00 72.00
C 135.00 72.00 135.50 72.00 136.00 72.00
C 139.07 69.73 147.86 69.68 152.00 69.00
C 152.00 69.00 152.50 69.02 153.00 69.00
C 160.22 65.22 167.76 61.55 174.75 56.75 C 181.75 51.95 183.74 41.91 190.00 38.00
C 190.00 38.00 189.89 37.47 190.00 37.00
C 191.14 32.14 193.76 25.10 196.00 21.00
C 196.00 21.00 196.03 20.50 196.00 20.00
C 195.74 16.13 196.66 10.15 198.00 7.00
C 198.00 6.50 197.79 5.39 198.00 5.00
C 198.00 4.00 198.00 3.00 198.00 2.00
C 183.26 13.57 164.74 18.00 146.00 18.00 Z"/>
</g>
<g fill="None" fill-opacity="0.0" stroke="#1E8EEA" stroke-opacity="1.00" stroke-width="0.3"><path d="
M 64.00 21.00 
C 57.88 22.49 50.40 24.60 45.00 28.00
C 45.00 28.00 44.50 27.95 44.00 28.00
C 41.82 30.14 38.46 32.30 36.00 34.00
C 8.65 59.54 -0.28 96.65 10.00 132.00
C 17.92 112.73 25.18 95.30 44.25 82.25 C 63.31 69.20 92.37 68.98 116.00 70.00
C 114.55 71.96 111.20 70.56 109.00 71.00
C 109.01 71.00 109.00 72.00 109.00 72.00
C 117.00 72.00 125.00 72.00 133.00 72.00
C 141.79 68.21 157.04 67.74 166.25 61.25 C 175.46 54.76 181.80 49.08 187.08 39.08 C 192.35 29.07 196.34 16.80 196.00 5.00
C 158.36 29.41 106.54 16.98 64.00 21.00 Z"/>
</g>
<g fill="None" fill-opacity="0.0" stroke="#DEEFFD" stroke-opacity="0.11" stroke-width="0.3"><path d="
M 196.00 20.00 
C 197.70 16.10 198.00 11.73 198.00 7.00
C 196.66 10.15 195.74 16.13 196.00 20.00 Z"/>
</g>
<g fill="None" fill-opacity="0.0" stroke="#55A8EF" stroke-opacity="0.81" stroke-width="0.3"><path d="
M 146.00 18.00 
C 135.33 18.00 124.67 18.00 114.00 18.00
C 123.99 18.97 135.94 18.97 146.00 18.00 Z"/>
</g>
<g fill="None" fill-opacity="0.0" stroke="#E9F5FE" stroke-opacity="0.08" stroke-width="0.3"><path d="
M 190.00 37.00 
C 193.31 32.88 195.87 26.50 196.00 21.00
C 193.76 25.10 191.14 32.14 190.00 37.00 Z"/>
</g>
<g fill="None" fill-opacity="0.0" stroke="#F0F8FE" stroke-opacity="0.11" stroke-width="0.3"><path d="
M 135.00 72.00 
C 134.50 72.00 133.50 72.00 133.00 72.00
C 125.00 72.00 117.00 72.00 109.00 72.00
C 106.00 72.00 103.00 72.00 100.00 72.00
C 95.33 72.00 90.67 72.00 86.00 72.00
C 84.34 72.00 82.66 71.94 81.00 72.00
C 65.57 72.52 51.04 78.50 39.00 88.00
C 36.73 90.10 34.16 92.84 32.00 95.00
C 20.87 108.02 14.26 123.53 9.00 139.00
C 0.99 102.76 2.46 57.19 36.00 34.00
C 38.46 32.30 41.82 30.14 44.00 28.00
C 37.93 30.06 32.85 34.49 28.25 39.25 C 23.64 44.00 19.40 47.35 16.31 53.31 C 13.21 59.26 9.98 65.27 7.98 71.98 C 5.97 78.68 4.27 86.49 4.00 94.00 C 3.73 101.51 3.73 112.81 5.01 119.99 C 6.28 127.17 5.81 136.79 11.00 140.00
C 12.46 131.88 15.83 123.66 19.23 116.23 C 22.63 108.80 26.48 103.11 31.75 96.75 C 37.03 90.40 42.23 86.62 49.30 82.30 C 56.38 77.99 64.53 76.12 72.99 73.99 C 81.46 71.87 95.27 74.63 104.00 73.00 C 112.73 71.37 128.16 77.06 135.00 72.00 Z"/>
</g>
<g fill="None" fill-opacity="0.0" stroke="#167EE7" stroke-opacity="0.93" stroke-width="0.3"><path d="
M 32.00 95.00 
C 34.19 92.44 36.39 90.06 39.00 88.00
C 51.04 78.50 65.57 72.52 81.00 72.00
C 82.34 71.74 84.08 71.08 86.00 71.00
C 90.65 70.81 95.35 71.00 100.00 71.00
C 103.00 71.00 106.00 71.06 109.00 71.00
C 111.20 70.56 114.55 71.96 116.00 70.00
C 92.37 68.98 63.31 69.20 44.25 82.25 C 25.18 95.30 17.92 112.73 10.00 132.00
C -0.28 96.65 8.65 59.54 36.00 34.00
C 2.46 57.19 0.99 102.76 9.00 139.00
C 14.26 123.53 20.87 108.02 32.00 95.00 Z"/>
</g>
<g fill="None" fill-opacity="0.0" stroke="#EEF7FE" stroke-opacity="0.13" stroke-width="0.3"><path d="
M 153.00 69.00 
C 167.75 68.44 184.89 51.01 190.00 38.00
C 183.74 41.91 181.75 51.95 174.75 56.75 C 167.76 61.55 160.22 65.22 153.00 69.00 Z"/>
</g>
<g fill="None" fill-opacity="0.0" stroke="#E5F3FE" stroke-opacity="0.13" stroke-width="0.3"><path d="
M 136.00 72.00 
C 141.05 72.00 148.18 72.10 152.00 69.00
C 147.86 69.68 139.07 69.73 136.00 72.00 Z"/>
</g>
<g fill="None" fill-opacity="0.0" stroke="#64B1F2" stroke-opacity="0.94" stroke-width="0.3"><path d="
M 81.00 72.00 
C 82.66 71.94 84.34 72.00 86.00 72.00
C 86.15 71.95 86.00 71.00 86.00 71.00
C 84.08 71.08 82.34 71.74 81.00 72.00 Z"/>
</g>
<g fill="None" fill-opacity="0.0" stroke="#C6E4FB" stroke-opacity="0.67" stroke-width="0.3"><path d="
M 86.00 72.00 
C 90.67 72.00 95.33 72.00 100.00 72.00
C 99.96 72.00 100.00 71.00 100.00 71.00
C 95.35 71.00 90.65 70.81 86.00 71.00
C 86.00 71.00 86.15 71.95 86.00 72.00 Z"/>
</g>
<g fill="None" fill-opacity="0.0" stroke="#85C3F5" stroke-opacity="0.87" stroke-width="0.3"><path d="
M 100.00 72.00 
C 103.00 72.00 106.00 72.00 109.00 72.00
C 109.00 72.00 109.01 71.00 109.00 71.00
C 106.00 71.06 103.00 71.00 100.00 71.00
C 100.00 71.00 99.96 72.00 100.00 72.00 Z"/>
</g>
<g fill="None" fill-opacity="0.0" stroke="#A0D1F7" stroke-opacity="0.56" stroke-width="0.3"><path d="
M 32.00 95.00 
C 34.16 92.84 36.73 90.10 39.00 88.00
C 36.39 90.06 34.19 92.44 32.00 95.00 Z"/>
</g>
<g fill="None" fill-opacity="0.0" stroke="#F0F8FE" stroke-opacity="0.06" stroke-width="0.3"><path d="
M 153.00 94.00 
C 154.88 93.32 156.32 91.98 158.00 91.00
C 158.00 93.67 158.00 96.33 158.00 99.00
C 160.22 96.98 158.41 92.84 159.00 90.00
C 156.33 90.10 154.40 91.86 153.00 94.00 Z"/>
</g>
<g fill="None" fill-opacity="0.0" stroke="#1F8DEA" stroke-opacity="0.99" stroke-width="0.3"><path d="
M 153.00 94.00 
C 153.00 94.00 152.48 93.90 152.00 94.00
C 150.05 97.13 145.37 98.20 142.00 99.00
C 139.23 99.65 136.69 100.18 134.00 101.00
C 132.46 101.47 131.10 101.96 129.00 102.00
C 127.67 102.02 126.33 102.00 125.00 102.00
C 116.70 103.13 107.00 103.00 98.00 103.00
C 91.53 103.63 81.33 105.69 75.00 103.00
C 74.58 103.18 73.50 103.03 73.00 103.00
C 71.09 103.77 69.42 103.81 67.00 104.00
C 64.70 104.18 63.09 104.49 61.00 105.00
C 58.48 105.87 56.03 107.43 53.00 108.00
C 53.00 108.00 52.50 107.95 52.00 108.00
C 50.57 109.15 48.86 110.27 47.00 111.00
C 47.00 111.00 46.44 110.84 46.00 111.00
C 40.33 116.92 33.73 120.49 28.70 127.70 C 23.67 134.90 21.39 144.06 19.00 152.00
C 19.03 152.50 18.82 153.58 19.00 154.00
C 23.26 164.02 20.07 181.21 27.31 190.69 C 34.54 200.18 38.71 207.51 47.75 215.25 C 56.80 222.99 62.56 231.75 67.00 242.00
C 76.77 230.87 67.13 213.12 63.22 200.78 C 59.32 188.44 49.86 169.71 59.30 157.30 C 68.74 144.90 91.09 149.47 104.00 150.00
C 118.49 149.71 130.39 145.95 141.25 136.25 C 152.10 126.55 154.22 113.55 158.00 101.00
C 157.97 100.50 158.00 99.50 158.00 99.00
C 158.00 96.33 158.00 93.67 158.00 91.00
C 156.32 91.98 154.88 93.32 153.00 94.00 Z"/>
</g>
<g fill="None" fill-opacity="0.0" stroke="#E2F2FD" stroke-opacity="0.09" stroke-width="0.3"><path d="
M 142.00 99.00 
C 145.37 98.20 150.05 97.13 152.00 94.00
C 148.49 94.77 145.19 97.91 142.00 99.00 Z"/>
</g>
<g fill="None" fill-opacity="0.0" stroke="#E3F1FD" stroke-opacity="0.06" stroke-width="0.3"><path d="
M 129.00 102.00 
C 131.10 101.96 132.46 101.47 134.00 101.00
C 132.54 101.26 129.97 101.87 129.00 102.00 Z"/>
</g>
<g fill="None" fill-opacity="0.0" stroke="#ECF7FE" stroke-opacity="0.12" stroke-width="0.3"><path d="
M 104.00 150.00 
C 91.04 150.26 67.27 146.21 59.25 159.25 C 51.23 172.28 61.31 190.01 65.32 202.68 C 69.34 215.35 77.07 232.80 68.00 246.00
L 70.00 246.00
C 76.03 228.30 71.81 209.34 62.98 193.02 C 54.14 176.70 57.48 152.20 77.98 151.98 C 98.47 151.75 119.66 152.26 134.92 142.92 C 150.18 133.58 159.16 117.56 158.00 101.00
C 154.22 113.55 152.10 126.55 141.25 136.25 C 130.39 145.95 118.49 149.71 104.00 150.00 Z"/>
</g>
<g fill="None" fill-opacity="0.0" stroke="#FEFFFF" stroke-opacity="0.00" stroke-width="0.3"><path d="
M 75.00 103.00 
C 82.67 103.00 90.33 103.00 98.00 103.00
C 107.00 103.00 116.70 103.13 125.00 102.00
C 116.81 102.00 107.03 101.48 99.00 102.00 C 90.97 102.52 81.92 100.06 75.00 103.00 Z"/>
</g>
<g fill="None" fill-opacity="0.0" stroke="#CCE6FC" stroke-opacity="0.06" stroke-width="0.3"><path d="
M 67.00 104.00 
C 69.42 103.81 71.09 103.77 73.00 103.00
C 70.68 102.86 68.66 103.71 67.00 104.00 Z"/>
</g>
<g fill="None" fill-opacity="0.0" stroke="#0271E5" stroke-opacity="0.82" stroke-width="0.3"><path d="
M 98.00 103.00 
C 90.33 103.00 82.67 103.00 75.00 103.00
C 81.33 105.69 91.53 103.63 98.00 103.00 Z"/>
</g>
<g fill="None" fill-opacity="0.0" stroke="#D0E7FD" stroke-opacity="0.13" stroke-width="0.3"><path d="
M 53.00 108.00 
C 56.03 107.43 58.48 105.87 61.00 105.00
C 58.42 105.62 54.67 105.82 53.00 108.00 Z"/>
</g>
<g fill="None" fill-opacity="0.0" stroke="#F7FFFF" stroke-opacity="0.03" stroke-width="0.3"><path d="
M 47.00 111.00 
C 48.86 110.27 50.57 109.15 52.00 108.00
C 49.83 108.20 48.14 109.17 47.00 111.00 Z"/>
</g>
<g fill="None" fill-opacity="0.0" stroke="#E5F4FD" stroke-opacity="0.07" stroke-width="0.3"><path d="
M 19.00 152.00 
C 21.39 144.06 23.67 134.90 28.70 127.70 C 33.73 120.49 40.33 116.92 46.00 111.00
C 32.25 115.96 17.97 137.23 19.00 152.00 Z"/>
</g>
<g fill="None" fill-opacity="0.0" stroke="#147CE7" stroke-opacity="0.91" stroke-width="0.3"><path d="
M 19.00 154.00 
C 19.00 159.33 19.00 164.67 19.00 170.00
C 19.00 170.00 19.03 170.50 19.00 171.00
C 24.75 184.16 28.12 200.29 40.75 210.25 C 53.38 220.21 61.98 231.93 67.00 246.00
L 68.00 246.00
C 77.07 232.80 69.34 215.35 65.32 202.68 C 61.31 190.01 51.23 172.28 59.25 159.25 C 67.27 146.21 91.04 150.26 104.00 150.00
C 91.09 149.47 68.74 144.90 59.30 157.30 C 49.86 169.71 59.32 188.44 63.22 200.78 C 67.13 213.12 76.77 230.87 67.00 242.00
C 62.56 231.75 56.80 222.99 47.75 215.25 C 38.71 207.51 34.54 200.18 27.31 190.69 C 20.07 181.21 23.26 164.02 19.00 154.00 Z"/>
</g>
<g fill="None" fill-opacity="0.0" stroke="#FFFFFF" stroke-opacity="0.01" stroke-width="0.3"><path d="
M 19.00 170.00 
C 19.00 164.67 19.00 159.33 19.00 154.00
C 17.60 157.28 16.64 166.80 19.00 170.00 Z"/>
</g>
<g fill="None" fill-opacity="0.0" stroke="#E6F3FD" stroke-opacity="0.12" stroke-width="0.3"><path d="
M 66.00 246.00 
L 67.00 246.00
C 61.98 231.93 53.38 220.21 40.75 210.25 C 28.12 200.29 24.75 184.16 19.00 171.00
C 16.81 203.66 59.17 217.41 66.00 246.00 Z"/>
</g>
<g fill="#000000" fill-opacity="0.00" stroke="None">
<path d="
M 0.00 246.00 
L 66.00 246.00
C 59.17 217.41 16.81 203.66 19.00 171.00
C 19.03 170.50 19.00 170.00 19.00 170.00
C 16.64 166.80 17.60 157.28 19.00 154.00
C 18.82 153.58 19.03 152.50 19.00 152.00
C 17.97 137.23 32.25 115.96 46.00 111.00
C 46.44 110.84 47.00 111.00 47.00 111.00
C 48.14 109.17 49.83 108.20 52.00 108.00
C 52.50 107.95 53.00 108.00 53.00 108.00
C 54.67 105.82 58.42 105.62 61.00 105.00
C 63.09 104.49 64.70 104.18 67.00 104.00
C 68.66 103.71 70.68 102.86 73.00 103.00
C 73.50 103.03 74.58 103.18 75.00 103.00
C 81.92 100.06 90.97 102.52 99.00 102.00 C 107.03 101.48 116.81 102.00 125.00 102.00
C 126.33 102.00 127.67 102.02 129.00 102.00
C 129.97 101.87 132.54 101.26 134.00 101.00
C 136.69 100.18 139.23 99.65 142.00 99.00
C 145.19 97.91 148.49 94.77 152.00 94.00
C 152.48 93.90 153.00 94.00 153.00 94.00
C 154.40 91.86 156.33 90.10 159.00 90.00
C 158.41 92.84 160.22 96.98 158.00 99.00
C 158.00 99.50 157.97 100.50 158.00 101.00
C 159.16 117.56 150.18 133.58 134.92 142.92 C 119.66 152.26 98.47 151.75 77.98 151.98 C 57.48 152.20 54.14 176.70 62.98 193.02 C 71.81 209.34 76.03 228.30 70.00 246.00
L 203.00 246.00
L 203.00 0.00
L 0.00 0.00
L 0.00 246.00
M 198.00 5.00 
C 197.79 5.39 198.00 6.50 198.00 7.00
C 198.00 11.73 197.70 16.10 196.00 20.00
C 196.03 20.50 196.00 21.00 196.00 21.00
C 195.87 26.50 193.31 32.88 190.00 37.00
C 189.89 37.47 190.00 38.00 190.00 38.00
C 184.89 51.01 167.75 68.44 153.00 69.00
C 152.50 69.02 152.00 69.00 152.00 69.00
C 148.18 72.10 141.05 72.00 136.00 72.00
C 135.50 72.00 135.00 72.00 135.00 72.00
C 128.16 77.06 112.73 71.37 104.00 73.00 C 95.27 74.63 81.46 71.87 72.99 73.99 C 64.53 76.12 56.38 77.99 49.30 82.30 C 42.23 86.62 37.03 90.40 31.75 96.75 C 26.48 103.11 22.63 108.80 19.23 116.23 C 15.83 123.66 12.46 131.88 11.00 140.00
C 5.81 136.79 6.28 127.17 5.01 119.99 C 3.73 112.81 3.73 101.51 4.00 94.00 C 4.27 86.49 5.97 78.68 7.98 71.98 C 9.98 65.27 13.21 59.26 16.31 53.31 C 19.40 47.35 23.64 44.00 28.25 39.25 C 32.85 34.49 37.93 30.06 44.00 28.00
C 44.50 27.95 45.00 28.00 45.00 28.00
C 49.93 20.11 62.80 21.36 71.67 18.67 C 80.55 15.98 95.48 17.18 106.00 17.00 C 116.52 16.82 131.17 16.74 142.00 17.00 C 152.83 17.26 164.27 15.69 174.07 13.07 C 183.88 10.46 191.03 5.53 199.00 1.00
C 198.72 2.28 199.76 4.50 198.00 5.00 Z"/>
</g>
<g fill="#F1F9FE" fill-opacity="0.07" stroke="None">
<path d="
M 45.00 28.00 
C 50.40 24.60 57.88 22.49 64.00 21.00
C 79.85 17.14 97.21 18.00 114.00 18.00
C 124.67 18.00 135.33 18.00 146.00 18.00
C 164.74 18.00 183.26 13.57 198.00 2.00
C 198.00 3.00 198.00 4.00 198.00 5.00
C 199.76 4.50 198.72 2.28 199.00 1.00
C 191.03 5.53 183.88 10.46 174.07 13.07 C 164.27 15.69 152.83 17.26 142.00 17.00 C 131.17 16.74 116.52 16.82 106.00 17.00 C 95.48 17.18 80.55 15.98 71.67 18.67 C 62.80 21.36 49.93 20.11 45.00 28.00 Z"/>
</g>
<g fill="#1A81E8" fill-opacity="0.92" stroke="None">
<path d="
M 146.00 18.00 
C 135.94 18.97 123.99 18.97 114.00 18.00
C 97.21 18.00 79.85 17.14 64.00 21.00
C 106.54 16.98 158.36 29.41 196.00 5.00
C 196.34 16.80 192.35 29.07 187.08 39.08 C 181.80 49.08 175.46 54.76 166.25 61.25 C 157.04 67.74 141.79 68.21 133.00 72.00
C 133.50 72.00 134.50 72.00 135.00 72.00
C 135.00 72.00 135.50 72.00 136.00 72.00
C 139.07 69.73 147.86 69.68 152.00 69.00
C 152.00 69.00 152.50 69.02 153.00 69.00
C 160.22 65.22 167.76 61.55 174.75 56.75 C 181.75 51.95 183.74 41.91 190.00 38.00
C 190.00 38.00 189.89 37.47 190.00 37.00
C 191.14 32.14 193.76 25.10 196.00 21.00
C 196.00 21.00 196.03 20.50 196.00 20.00
C 195.74 16.13 196.66 10.15 198.00 7.00
C 198.00 6.50 197.79 5.39 198.00 5.00
C 198.00 4.00 198.00 3.00 198.00 2.00
C 183.26 13.57 164.74 18.00 146.00 18.00 Z"/>
</g>
<g fill="#1E8EEA" fill-opacity="1.00" stroke="None">
<path d="
M 64.00 21.00 
C 57.88 22.49 50.40 24.60 45.00 28.00
C 45.00 28.00 44.50 27.95 44.00 28.00
C 41.82 30.14 38.46 32.30 36.00 34.00
C 8.65 59.54 -0.28 96.65 10.00 132.00
C 17.92 112.73 25.18 95.30 44.25 82.25 C 63.31 69.20 92.37 68.98 116.00 70.00
C 114.55 71.96 111.20 70.56 109.00 71.00
C 109.01 71.00 109.00 72.00 109.00 72.00
C 117.00 72.00 125.00 72.00 133.00 72.00
C 141.79 68.21 157.04 67.74 166.25 61.25 C 175.46 54.76 181.80 49.08 187.08 39.08 C 192.35 29.07 196.34 16.80 196.00 5.00
C 158.36 29.41 106.54 16.98 64.00 21.00 Z"/>
</g>
<g fill="#DEEFFD" fill-opacity="0.11" stroke="None">
<path d="
M 196.00 20.00 
C 197.70 16.10 198.00 11.73 198.00 7.00
C 196.66 10.15 195.74 16.13 196.00 20.00 Z"/>
</g>
<g fill="#55A8EF" fill-opacity="0.81" stroke="None">
<path d="
M 146.00 18.00 
C 135.33 18.00 124.67 18.00 114.00 18.00
C 123.99 18.97 135.94 18.97 146.00 18.00 Z"/>
</g>
<g fill="#E9F5FE" fill-opacity="0.08" stroke="None">
<path d="
M 190.00 37.00 
C 193.31 32.88 195.87 26.50 196.00 21.00
C 193.76 25.10 191.14 32.14 190.00 37.00 Z"/>
</g>
<g fill="#F0F8FE" fill-opacity="0.11" stroke="None">
<path d="
M 135.00 72.00 
C 134.50 72.00 133.50 72.00 133.00 72.00
C 125.00 72.00 117.00 72.00 109.00 72.00
C 106.00 72.00 103.00 72.00 100.00 72.00
C 95.33 72.00 90.67 72.00 86.00 72.00
C 84.34 72.00 82.66 71.94 81.00 72.00
C 65.57 72.52 51.04 78.50 39.00 88.00
C 36.73 90.10 34.16 92.84 32.00 95.00
C 20.87 108.02 14.26 123.53 9.00 139.00
C 0.99 102.76 2.46 57.19 36.00 34.00
C 38.46 32.30 41.82 30.14 44.00 28.00
C 37.93 30.06 32.85 34.49 28.25 39.25 C 23.64 44.00 19.40 47.35 16.31 53.31 C 13.21 59.26 9.98 65.27 7.98 71.98 C 5.97 78.68 4.27 86.49 4.00 94.00 C 3.73 101.51 3.73 112.81 5.01 119.99 C 6.28 127.17 5.81 136.79 11.00 140.00
C 12.46 131.88 15.83 123.66 19.23 116.23 C 22.63 108.80 26.48 103.11 31.75 96.75 C 37.03 90.40 42.23 86.62 49.30 82.30 C 56.38 77.99 64.53 76.12 72.99 73.99 C 81.46 71.87 95.27 74.63 104.00 73.00 C 112.73 71.37 128.16 77.06 135.00 72.00 Z"/>
</g>
<g fill="#167EE7" fill-opacity="0.93" stroke="None">
<path d="
M 32.00 95.00 
C 34.19 92.44 36.39 90.06 39.00 88.00
C 51.04 78.50 65.57 72.52 81.00 72.00
C 82.34 71.74 84.08 71.08 86.00 71.00
C 90.65 70.81 95.35 71.00 100.00 71.00
C 103.00 71.00 106.00 71.06 109.00 71.00
C 111.20 70.56 114.55 71.96 116.00 70.00
C 92.37 68.98 63.31 69.20 44.25 82.25 C 25.18 95.30 17.92 112.73 10.00 132.00
C -0.28 96.65 8.65 59.54 36.00 34.00
C 2.46 57.19 0.99 102.76 9.00 139.00
C 14.26 123.53 20.87 108.02 32.00 95.00 Z"/>
</g>
<g fill="#EEF7FE" fill-opacity="0.13" stroke="None">
<path d="
M 153.00 69.00 
C 167.75 68.44 184.89 51.01 190.00 38.00
C 183.74 41.91 181.75 51.95 174.75 56.75 C 167.76 61.55 160.22 65.22 153.00 69.00 Z"/>
</g>
<g fill="#E5F3FE" fill-opacity="0.13" stroke="None">
<path d="
M 136.00 72.00 
C 141.05 72.00 148.18 72.10 152.00 69.00
C 147.86 69.68 139.07 69.73 136.00 72.00 Z"/>
</g>
<g fill="#64B1F2" fill-opacity="0.94" stroke="None">
<path d="
M 81.00 72.00 
C 82.66 71.94 84.34 72.00 86.00 72.00
C 86.15 71.95 86.00 71.00 86.00 71.00
C 84.08 71.08 82.34 71.74 81.00 72.00 Z"/>
</g>
<g fill="#C6E4FB" fill-opacity="0.67" stroke="None">
<path d="
M 86.00 72.00 
C 90.67 72.00 95.33 72.00 100.00 72.00
C 99.96 72.00 100.00 71.00 100.00 71.00
C 95.35 71.00 90.65 70.81 86.00 71.00
C 86.00 71.00 86.15 71.95 86.00 72.00 Z"/>
</g>
<g fill="#85C3F5" fill-opacity="0.87" stroke="None">
<path d="
M 100.00 72.00 
C 103.00 72.00 106.00 72.00 109.00 72.00
C 109.00 72.00 109.01 71.00 109.00 71.00
C 106.00 71.06 103.00 71.00 100.00 71.00
C 100.00 71.00 99.96 72.00 100.00 72.00 Z"/>
</g>
<g fill="#A0D1F7" fill-opacity="0.56" stroke="None">
<path d="
M 32.00 95.00 
C 34.16 92.84 36.73 90.10 39.00 88.00
C 36.39 90.06 34.19 92.44 32.00 95.00 Z"/>
</g>
<g fill="#F0F8FE" fill-opacity="0.06" stroke="None">
<path d="
M 153.00 94.00 
C 154.88 93.32 156.32 91.98 158.00 91.00
C 158.00 93.67 158.00 96.33 158.00 99.00
C 160.22 96.98 158.41 92.84 159.00 90.00
C 156.33 90.10 154.40 91.86 153.00 94.00 Z"/>
</g>
<g fill="#1F8DEA" fill-opacity="0.99" stroke="None">
<path d="
M 153.00 94.00 
C 153.00 94.00 152.48 93.90 152.00 94.00
C 150.05 97.13 145.37 98.20 142.00 99.00
C 139.23 99.65 136.69 100.18 134.00 101.00
C 132.46 101.47 131.10 101.96 129.00 102.00
C 127.67 102.02 126.33 102.00 125.00 102.00
C 116.70 103.13 107.00 103.00 98.00 103.00
C 91.53 103.63 81.33 105.69 75.00 103.00
C 74.58 103.18 73.50 103.03 73.00 103.00
C 71.09 103.77 69.42 103.81 67.00 104.00
C 64.70 104.18 63.09 104.49 61.00 105.00
C 58.48 105.87 56.03 107.43 53.00 108.00
C 53.00 108.00 52.50 107.95 52.00 108.00
C 50.57 109.15 48.86 110.27 47.00 111.00
C 47.00 111.00 46.44 110.84 46.00 111.00
C 40.33 116.92 33.73 120.49 28.70 127.70 C 23.67 134.90 21.39 144.06 19.00 152.00
C 19.03 152.50 18.82 153.58 19.00 154.00
C 23.26 164.02 20.07 181.21 27.31 190.69 C 34.54 200.18 38.71 207.51 47.75 215.25 C 56.80 222.99 62.56 231.75 67.00 242.00
C 76.77 230.87 67.13 213.12 63.22 200.78 C 59.32 188.44 49.86 169.71 59.30 157.30 C 68.74 144.90 91.09 149.47 104.00 150.00
C 118.49 149.71 130.39 145.95 141.25 136.25 C 152.10 126.55 154.22 113.55 158.00 101.00
C 157.97 100.50 158.00 99.50 158.00 99.00
C 158.00 96.33 158.00 93.67 158.00 91.00
C 156.32 91.98 154.88 93.32 153.00 94.00 Z"/>
</g>
<g fill="#E2F2FD" fill-opacity="0.09" stroke="None">
<path d="
M 142.00 99.00 
C 145.37 98.20 150.05 97.13 152.00 94.00
C 148.49 94.77 145.19 97.91 142.00 99.00 Z"/>
</g>
<g fill="#E3F1FD" fill-opacity="0.06" stroke="None">
<path d="
M 129.00 102.00 
C 131.10 101.96 132.46 101.47 134.00 101.00
C 132.54 101.26 129.97 101.87 129.00 102.00 Z"/>
</g>
<g fill="#ECF7FE" fill-opacity="0.12" stroke="None">
<path d="
M 104.00 150.00 
C 91.04 150.26 67.27 146.21 59.25 159.25 C 51.23 172.28 61.31 190.01 65.32 202.68 C 69.34 215.35 77.07 232.80 68.00 246.00
L 70.00 246.00
C 76.03 228.30 71.81 209.34 62.98 193.02 C 54.14 176.70 57.48 152.20 77.98 151.98 C 98.47 151.75 119.66 152.26 134.92 142.92 C 150.18 133.58 159.16 117.56 158.00 101.00
C 154.22 113.55 152.10 126.55 141.25 136.25 C 130.39 145.95 118.49 149.71 104.00 150.00 Z"/>
</g>
<g fill="#FEFFFF" fill-opacity="0.00" stroke="None">
<path d="
M 75.00 103.00 
C 82.67 103.00 90.33 103.00 98.00 103.00
C 107.00 103.00 116.70 103.13 125.00 102.00
C 116.81 102.00 107.03 101.48 99.00 102.00 C 90.97 102.52 81.92 100.06 75.00 103.00 Z"/>
</g>
<g fill="#CCE6FC" fill-opacity="0.06" stroke="None">
<path d="
M 67.00 104.00 
C 69.42 103.81 71.09 103.77 73.00 103.00
C 70.68 102.86 68.66 103.71 67.00 104.00 Z"/>
</g>
<g fill="#0271E5" fill-opacity="0.82" stroke="None">
<path d="
M 98.00 103.00 
C 90.33 103.00 82.67 103.00 75.00 103.00
C 81.33 105.69 91.53 103.63 98.00 103.00 Z"/>
</g>
<g fill="#D0E7FD" fill-opacity="0.13" stroke="None">
<path d="
M 53.00 108.00 
C 56.03 107.43 58.48 105.87 61.00 105.00
C 58.42 105.62 54.67 105.82 53.00 108.00 Z"/>
</g>
<g fill="#F7FFFF" fill-opacity="0.03" stroke="None">
<path d="
M 47.00 111.00 
C 48.86 110.27 50.57 109.15 52.00 108.00
C 49.83 108.20 48.14 109.17 47.00 111.00 Z"/>
</g>
<g fill="#E5F4FD" fill-opacity="0.07" stroke="None">
<path d="
M 19.00 152.00 
C 21.39 144.06 23.67 134.90 28.70 127.70 C 33.73 120.49 40.33 116.92 46.00 111.00
C 32.25 115.96 17.97 137.23 19.00 152.00 Z"/>
</g>
<g fill="#147CE7" fill-opacity="0.91" stroke="None">
<path d="
M 19.00 154.00 
C 19.00 159.33 19.00 164.67 19.00 170.00
C 19.00 170.00 19.03 170.50 19.00 171.00
C 24.75 184.16 28.12 200.29 40.75 210.25 C 53.38 220.21 61.98 231.93 67.00 246.00
L 68.00 246.00
C 77.07 232.80 69.34 215.35 65.32 202.68 C 61.31 190.01 51.23 172.28 59.25 159.25 C 67.27 146.21 91.04 150.26 104.00 150.00
C 91.09 149.47 68.74 144.90 59.30 157.30 C 49.86 169.71 59.32 188.44 63.22 200.78 C 67.13 213.12 76.77 230.87 67.00 242.00
C 62.56 231.75 56.80 222.99 47.75 215.25 C 38.71 207.51 34.54 200.18 27.31 190.69 C 20.07 181.21 23.26 164.02 19.00 154.00 Z"/>
</g>
<g fill="#FFFFFF" fill-opacity="0.01" stroke="None">
<path d="
M 19.00 170.00 
C 19.00 164.67 19.00 159.33 19.00 154.00
C 17.60 157.28 16.64 166.80 19.00 170.00 Z"/>
</g>
<g fill="#E6F3FD" fill-opacity="0.12" stroke="None">
<path d="
M 66.00 246.00 
L 67.00 246.00
C 61.98 231.93 53.38 220.21 40.75 210.25 C 28.12 200.29 24.75 184.16 19.00 171.00
C 16.81 203.66 59.17 217.41 66.00 246.00 Z"/>
</g>
</svg>