<svg xmlns="http://www.w3.org/2000/svg" xmlns:v="https://svgstorm.com"
viewBox = "0 0 787 246"
width="787"
height="246">
<g fill="None" fill-opacity="0.0" stroke="#000000" stroke-opacity="0.00" stroke-width="0.3"><path d="
M 0.00 246.00 
L 63.00 246.00
C 54.64 214.43 20.75 205.59 17.01 169.99 C 13.27 134.39 36.47 106.44 72.00 103.00
C 88.87 101.37 107.51 103.39 125.00 102.00
C 137.96 100.97 148.20 93.63 160.00 90.00
C 160.98 105.51 157.13 119.98 148.08 132.08 C 139.02 144.17 125.70 148.36 111.78 150.78 C 97.86 153.20 74.16 145.84 63.75 157.75 C 53.34 169.66 62.92 188.86 67.32 201.68 C 71.72 214.50 78.46 232.12 72.00 246.00
L 787.00 246.00
L 787.00 0.00
L 201.00 0.00
C 199.76 23.23 193.69 45.94 172.75 60.75 C 151.82 75.57 119.13 74.44 94.00 72.00
C 92.00 72.00 90.00 72.00 88.00 72.00
C 79.19 72.85 67.47 74.87 58.98 77.98 C 50.48 81.08 44.56 85.82 37.75 91.75 C 30.94 97.68 27.42 103.69 22.70 111.70 C 17.98 119.71 17.33 128.21 13.01 137.01 C 8.69 145.81 2.07 129.54 2.07 120.93 C 2.07 112.31 0.69 95.49 2.78 86.78 C 4.87 78.07 7.62 68.22 11.32 60.32 C 15.03 52.42 19.48 46.23 25.75 39.75 C 32.02 33.28 37.93 29.19 46.23 25.23 C 54.53 21.27 64.16 19.37 74.00 18.00 C 83.84 16.63 97.35 17.01 108.00 17.00 C 118.65 16.99 132.48 17.03 143.00 17.00 C 153.52 16.97 164.73 15.76 174.02 13.02 C 183.32 10.29 189.15 6.01 196.00 0.00
L 0.00 0.00
L 0.00 246.00
M 316.00 54.00 
C 322.94 53.37 331.06 53.37 338.00 54.00
C 339.86 53.50 342.10 54.38 344.00 54.00
C 344.05 62.92 343.93 71.00 344.00 80.00 C 344.07 89.00 343.87 97.83 344.00 107.00 C 344.13 116.17 343.72 124.54 344.00 134.00 C 344.28 143.46 343.38 150.94 344.00 161.00 C 344.62 171.06 342.62 176.64 344.00 188.00 C 345.38 199.36 338.77 198.79 328.00 199.00 C 317.23 199.21 312.62 197.96 314.00 187.00 C 315.38 176.04 313.34 169.85 314.00 160.00 C 314.66 150.15 313.62 142.32 314.00 133.00 C 314.38 123.68 313.64 114.99 314.00 106.00 C 314.36 97.01 313.43 87.65 314.00 79.00 C 314.57 70.35 311.94 60.03 316.00 54.00
M 303.00 83.00 
C 291.22 84.06 278.84 83.00 267.00 83.00
C 262.33 83.00 257.67 83.00 253.00 83.00
C 253.00 93.67 253.00 104.33 253.00 115.00
C 267.36 113.54 276.07 116.95 291.00 115.00 C 305.93 113.05 299.44 130.79 301.00 141.00
C 299.72 140.47 299.14 141.97 298.00 142.00
C 283.12 143.34 267.91 140.99 253.00 142.00
C 253.63 160.59 251.71 179.82 254.00 198.00
C 243.16 199.49 230.83 199.73 220.00 198.00
C 222.00 186.62 220.62 174.84 221.00 163.00 C 221.38 151.16 220.54 137.79 221.00 126.00 C 221.46 114.21 220.13 101.47 221.00 90.00 C 221.87 78.53 218.08 65.13 223.00 57.00
C 236.86 55.75 252.17 57.29 266.00 57.00 C 279.83 56.71 294.37 55.59 307.00 59.00
C 305.03 66.20 305.82 74.75 307.00 82.00
C 305.46 81.63 304.60 83.43 303.00 83.00
M 672.00 198.00 
C 663.74 197.80 651.34 201.63 643.00 199.00 C 634.66 196.37 640.15 180.42 639.00 172.00 C 637.85 163.58 639.40 151.28 639.00 142.00 C 638.60 132.72 638.98 120.50 639.00 111.00 C 639.02 101.50 638.51 90.26 639.00 81.00 C 639.49 71.74 639.38 65.48 640.00 57.00
C 653.46 56.97 672.95 52.52 671.00 69.00 C 669.05 85.48 671.82 96.68 671.00 112.00 C 670.18 127.32 671.23 140.18 671.00 155.00 C 670.77 169.82 670.37 183.73 672.00 198.00
M 419.00 92.00 
C 458.80 97.69 479.02 150.19 453.23 181.23 C 427.44 212.27 375.35 208.95 359.07 169.93 C 342.80 130.90 373.25 85.46 419.00 92.00
M 696.00 94.00 
C 700.63 94.38 705.37 93.60 710.00 94.00
C 711.51 93.97 714.48 92.43 715.75 95.25 C 717.02 98.07 714.45 101.20 717.00 103.00
C 717.25 102.75 717.81 102.32 718.00 102.00
C 723.92 92.07 743.02 91.80 754.00 93.00 C 764.98 94.20 775.62 101.23 780.77 112.23 C 785.92 123.23 785.34 139.30 785.00 153.00 C 784.66 166.70 785.25 184.89 785.00 199.00
C 776.52 198.75 768.53 199.34 760.00 199.00 C 751.47 198.66 755.61 185.94 755.00 179.00 C 754.39 172.06 754.58 165.56 754.07 158.93 C 753.57 152.29 756.03 142.11 754.67 135.33 C 753.31 128.55 751.29 123.16 744.92 120.08 C 738.54 117.00 730.98 117.19 724.92 120.92 C 718.87 124.66 716.99 130.44 717.01 138.01 C 717.02 145.57 716.43 154.82 717.22 162.22 C 718.00 169.62 716.09 176.62 717.78 184.22 C 719.47 191.82 716.81 202.04 708.00 199.00 C 699.19 195.96 689.22 203.66 687.01 194.99 C 684.80 186.31 687.99 178.51 687.00 170.00 C 686.01 161.49 687.46 153.47 687.00 145.00 C 686.54 136.53 687.23 128.51 687.00 120.00 C 686.77 111.49 687.17 102.55 687.00 94.00
C 688.00 94.00 689.00 94.00 690.00 94.00
C 690.49 94.06 691.00 94.00 691.00 94.00
C 693.06 92.19 693.79 93.82 696.00 94.00
M 494.00 95.00 
C 496.73 116.02 506.05 135.21 510.00 156.00
C 514.67 148.10 516.31 142.60 519.31 133.31 C 522.30 124.02 525.22 119.27 527.32 108.32 C 529.42 97.37 532.47 94.17 545.00 94.00 C 557.53 93.83 561.32 97.57 563.32 108.68 C 565.33 119.79 568.61 123.40 570.93 133.07 C 573.25 142.75 575.15 149.51 579.00 158.00
C 582.07 151.63 582.30 142.68 584.98 135.98 C 587.65 129.27 588.47 120.04 591.98 113.98 C 595.48 107.91 592.96 96.42 600.03 94.03 C 607.10 91.64 621.28 95.76 629.00 94.00
C 626.43 104.93 621.83 114.04 619.01 125.01 C 616.19 135.98 611.19 144.38 609.01 156.01 C 606.83 167.64 600.00 175.23 599.00 188.00 C 598.00 200.77 580.00 200.85 569.00 199.00 C 558.00 197.15 559.44 181.44 554.69 172.31 C 549.95 163.17 549.76 149.77 544.00 141.00
C 543.29 148.34 540.41 155.25 538.07 162.07 C 535.74 168.90 533.97 175.91 531.68 182.68 C 529.39 189.45 530.30 199.77 521.00 199.00 C 511.69 198.23 503.23 199.58 494.00 199.00
C 492.43 191.80 490.11 183.97 488.07 176.93 C 486.04 169.88 482.52 163.16 481.02 155.98 C 479.53 148.79 475.71 140.69 474.02 133.98 C 472.33 127.27 468.25 118.95 467.08 112.92 C 465.91 106.89 458.03 95.04 466.01 94.01 C 473.99 92.98 486.09 94.01 494.00 95.00 Z"/>
</g>
<g fill="None" fill-opacity="0.0" stroke="#F8FBFE" stroke-opacity="0.15" stroke-width="0.3"><path d="
M 88.00 72.00 
C 86.33 72.00 84.67 71.99 83.00 72.00
C 44.53 72.27 17.85 104.65 9.00 139.00
C 1.94 107.56 2.35 71.12 23.00 45.00
C 25.37 41.68 28.73 38.34 32.00 36.00
C 80.95 1.04 148.98 35.47 198.00 2.00
C 196.48 23.03 191.38 42.66 174.25 57.25 C 157.11 71.83 131.54 73.22 109.00 72.00
C 104.00 72.00 99.00 72.00 94.00 72.00
C 119.13 74.44 151.82 75.57 172.75 60.75 C 193.69 45.94 199.76 23.23 201.00 0.00
L 196.00 0.00
C 189.15 6.01 183.32 10.29 174.02 13.02 C 164.73 15.76 153.52 16.97 143.00 17.00 C 132.48 17.03 118.65 16.99 108.00 17.00 C 97.35 17.01 83.84 16.63 74.00 18.00 C 64.16 19.37 54.53 21.27 46.23 25.23 C 37.93 29.19 32.02 33.28 25.75 39.75 C 19.48 46.23 15.03 52.42 11.32 60.32 C 7.62 68.22 4.87 78.07 2.78 86.78 C 0.69 95.49 2.07 112.31 2.07 120.93 C 2.07 129.54 8.69 145.81 13.01 137.01 C 17.33 128.21 17.98 119.71 22.70 111.70 C 27.42 103.69 30.94 97.68 37.75 91.75 C 44.56 85.82 50.48 81.08 58.98 77.98 C 67.47 74.87 79.19 72.85 88.00 72.00 Z"/>
</g>
<g fill="None" fill-opacity="0.0" stroke="#1F8DE9" stroke-opacity="0.99" stroke-width="0.3"><path d="
M 32.00 36.00 
C 29.25 38.31 25.26 42.30 23.00 45.00
C 2.35 71.12 1.94 107.56 9.00 139.00
C 17.85 104.65 44.53 72.27 83.00 72.00
C 82.85 71.95 83.00 71.00 83.00 71.00
C 80.75 70.16 91.28 69.71 96.00 70.00 C 100.72 70.29 109.88 69.78 115.00 70.00
C 113.86 71.87 110.87 70.61 109.00 71.00
C 109.02 71.00 109.00 72.00 109.00 72.00
C 131.54 73.22 157.11 71.83 174.25 57.25 C 191.38 42.66 196.48 23.03 198.00 2.00
C 148.98 35.47 80.95 1.04 32.00 36.00 Z"/>
</g>
<g fill="None" fill-opacity="0.0" stroke="#F7FAFD" stroke-opacity="0.41" stroke-width="0.3"><path d="
M 23.00 45.00 
C 25.26 42.30 29.25 38.31 32.00 36.00
C 28.73 38.34 25.37 41.68 23.00 45.00 Z"/>
</g>
<g fill="None" fill-opacity="0.0" stroke="#FBFDFE" stroke-opacity="0.11" stroke-width="0.3"><path d="
M 338.00 54.00 
C 338.04 54.00 338.00 55.00 338.00 55.00
C 338.68 55.00 340.40 54.71 341.00 55.00
C 344.88 56.91 340.96 69.00 342.00 74.00 C 343.04 79.00 341.51 89.02 342.00 95.00 C 342.49 100.98 341.79 108.52 342.00 115.00 C 342.21 121.48 341.90 129.31 342.00 136.00 C 342.10 142.69 341.96 149.19 342.00 156.00 C 342.04 162.81 341.98 170.10 342.00 177.00 C 342.02 183.90 341.98 191.07 342.00 198.00
C 333.33 198.00 324.67 198.00 316.00 198.00
C 316.00 150.33 316.00 102.67 316.00 55.00
C 316.00 54.50 316.00 54.00 316.00 54.00
C 311.94 60.03 314.57 70.35 314.00 79.00 C 313.43 87.65 314.36 97.01 314.00 106.00 C 313.64 114.99 314.38 123.68 314.00 133.00 C 313.62 142.32 314.66 150.15 314.00 160.00 C 313.34 169.85 315.38 176.04 314.00 187.00 C 312.62 197.96 317.23 199.21 328.00 199.00 C 338.77 198.79 345.38 199.36 344.00 188.00 C 342.62 176.64 344.62 171.06 344.00 161.00 C 343.38 150.94 344.28 143.46 344.00 134.00 C 343.72 124.54 344.13 116.17 344.00 107.00 C 343.87 97.83 344.07 89.00 344.00 80.00 C 343.93 71.00 344.05 62.92 344.00 54.00
C 342.10 54.38 339.86 53.50 338.00 54.00 Z"/>
</g>
<g fill="None" fill-opacity="0.0" stroke="#FCFEFE" stroke-opacity="0.37" stroke-width="0.3"><path d="
M 316.00 55.00 
C 316.25 55.25 317.00 55.00 317.00 55.00
C 324.00 55.00 331.00 55.00 338.00 55.00
C 338.00 55.00 338.04 54.00 338.00 54.00
C 331.06 53.37 322.94 53.37 316.00 54.00
C 316.00 54.00 316.00 54.50 316.00 55.00 Z"/>
</g>
<g fill="None" fill-opacity="0.0" stroke="#006CE4" stroke-opacity="0.86" stroke-width="0.3"><path d="
M 341.00 55.00 
C 341.00 102.33 341.00 149.67 341.00 197.00
C 333.00 197.00 325.00 197.00 317.00 197.00
C 317.00 149.67 317.00 102.33 317.00 55.00
C 317.00 55.00 316.25 55.25 316.00 55.00
C 316.00 102.67 316.00 150.33 316.00 198.00
C 324.67 198.00 333.33 198.00 342.00 198.00
C 341.98 191.07 342.02 183.90 342.00 177.00 C 341.98 170.10 342.04 162.81 342.00 156.00 C 341.96 149.19 342.10 142.69 342.00 136.00 C 341.90 129.31 342.21 121.48 342.00 115.00 C 341.79 108.52 342.49 100.98 342.00 95.00 C 341.51 89.02 343.04 79.00 342.00 74.00 C 340.96 69.00 344.88 56.91 341.00 55.00 Z"/>
</g>
<g fill="None" fill-opacity="0.0" stroke="#1D8DE9" stroke-opacity="1.00" stroke-width="0.3"><path d="
M 341.00 55.00 
C 340.40 54.71 338.68 55.00 338.00 55.00
C 331.00 55.00 324.00 55.00 317.00 55.00
C 317.00 102.33 317.00 149.67 317.00 197.00
C 325.00 197.00 333.00 197.00 341.00 197.00
C 341.00 149.67 341.00 102.33 341.00 55.00 Z"/>
</g>
<g fill="None" fill-opacity="0.0" stroke="#FEFEFE" stroke-opacity="0.21" stroke-width="0.3"><path d="
M 298.00 142.00 
C 298.04 142.00 298.00 141.00 298.00 141.00
C 297.75 140.75 297.00 141.00 297.00 141.00
C 281.67 141.00 266.33 141.00 251.00 141.00
C 251.51 146.64 251.31 153.39 251.00 159.00 C 250.69 164.61 252.20 172.77 251.00 178.00 C 249.80 183.23 253.88 192.88 251.00 197.00
C 248.84 200.09 241.86 197.20 238.00 198.00 C 234.14 198.80 227.14 197.40 223.00 198.00
C 223.00 151.33 223.00 104.67 223.00 58.00
C 223.00 57.50 223.00 57.00 223.00 57.00
C 218.08 65.13 221.87 78.53 221.00 90.00 C 220.13 101.47 221.46 114.21 221.00 126.00 C 220.54 137.79 221.38 151.16 221.00 163.00 C 220.62 174.84 222.00 186.62 220.00 198.00
C 230.83 199.73 243.16 199.49 254.00 198.00
C 251.71 179.82 253.63 160.59 253.00 142.00
C 267.91 140.99 283.12 143.34 298.00 142.00 Z"/>
</g>
<g fill="None" fill-opacity="0.0" stroke="#FEFEFE" stroke-opacity="0.08" stroke-width="0.3"><path d="
M 223.00 58.00 
C 229.46 58.58 236.59 57.51 243.00 58.00 C 249.41 58.49 256.80 57.27 263.00 58.00 C 269.20 58.73 277.33 56.55 283.00 58.00 C 288.67 59.45 298.51 54.86 303.00 58.00
C 305.53 59.77 303.70 66.91 304.00 70.00 C 304.30 73.09 304.74 79.65 303.00 82.00
C 302.76 82.32 303.00 83.00 303.00 83.00
C 304.60 83.43 305.46 81.63 307.00 82.00
C 305.82 74.75 305.03 66.20 307.00 59.00
C 294.37 55.59 279.83 56.71 266.00 57.00 C 252.17 57.29 236.86 55.75 223.00 57.00
C 223.00 57.00 223.00 57.50 223.00 58.00 Z"/>
</g>
<g fill="None" fill-opacity="0.0" stroke="#FEFEFE" stroke-opacity="0.09" stroke-width="0.3"><path d="
M 672.00 198.00 
C 670.37 183.73 670.77 169.82 671.00 155.00 C 671.23 140.18 670.18 127.32 671.00 112.00 C 671.82 96.68 669.05 85.48 671.00 69.00 C 672.95 52.52 653.46 56.97 640.00 57.00
C 639.38 65.48 639.49 71.74 639.00 81.00 C 638.51 90.26 639.02 101.50 639.00 111.00 C 638.98 120.50 638.60 132.72 639.00 142.00 C 639.40 151.28 637.85 163.58 639.00 172.00 C 640.15 180.42 634.66 196.37 643.00 199.00 C 651.34 201.63 663.74 197.80 672.00 198.00
M 668.00 198.00 
C 664.42 198.32 658.42 198.57 655.00 198.00 C 651.58 197.43 644.65 199.86 642.00 198.00
C 638.03 195.22 642.11 184.19 641.00 179.00 C 639.89 173.81 641.46 165.00 641.00 159.00 C 640.54 153.00 641.10 145.35 641.00 139.00 C 640.90 132.65 640.87 124.35 641.00 118.00 C 641.13 111.65 640.49 104.01 641.00 98.00 C 641.51 91.99 639.79 83.22 641.00 78.00 C 642.21 72.78 637.95 60.84 642.00 58.00
C 644.26 56.42 652.05 58.14 655.00 58.00 C 657.95 57.86 665.29 56.80 668.00 58.00
C 671.08 58.89 668.32 69.94 669.00 74.00 C 669.68 78.06 668.71 86.90 669.00 92.00 C 669.29 97.10 668.90 104.47 669.00 110.00 C 669.10 115.53 669.02 122.35 669.00 128.00 C 668.98 133.65 669.17 139.35 669.00 145.00 C 668.83 150.65 669.40 157.48 669.00 163.00 C 668.60 168.52 669.91 175.92 669.00 181.00 C 668.09 186.08 671.48 194.65 668.00 198.00 Z"/>
</g>
<g fill="None" fill-opacity="0.0" stroke="#0073E6" stroke-opacity="0.97" stroke-width="0.3"><path d="
M 251.00 197.00 
C 250.41 179.40 248.34 159.30 250.00 141.00
C 246.32 144.56 250.03 153.67 249.00 159.00 C 247.97 164.33 249.54 172.19 249.00 178.00 C 248.46 183.81 249.40 191.06 249.00 197.00
C 240.67 197.00 232.33 197.00 224.00 197.00
C 224.00 151.00 224.00 105.00 224.00 59.00
C 250.00 59.00 276.00 59.00 302.00 59.00
C 302.00 66.33 302.00 73.67 302.00 81.00
C 293.40 81.68 281.24 80.09 273.00 81.00 C 264.76 81.91 248.95 76.78 249.00 87.00 C 249.05 97.23 248.13 106.78 250.00 116.00
C 249.59 111.50 249.41 103.21 250.00 99.00 C 250.59 94.79 247.74 84.29 251.00 82.00
C 253.52 80.24 263.78 82.00 267.00 82.00
C 278.84 82.00 291.22 80.94 303.00 82.00
C 303.00 74.00 303.00 66.00 303.00 58.00
C 298.51 54.86 288.67 59.45 283.00 58.00 C 277.33 56.55 269.20 58.73 263.00 58.00 C 256.80 57.27 249.41 58.49 243.00 58.00 C 236.59 57.51 229.46 58.58 223.00 58.00
C 223.00 104.67 223.00 151.33 223.00 198.00
C 227.14 197.40 234.14 198.80 238.00 198.00 C 241.86 197.20 248.84 200.09 251.00 197.00 Z"/>
</g>
<g fill="None" fill-opacity="0.0" stroke="#D6E9FA" stroke-opacity="0.64" stroke-width="0.3"><path d="
M 303.00 82.00 
C 304.74 79.65 304.30 73.09 304.00 70.00 C 303.70 66.91 305.53 59.77 303.00 58.00
C 303.00 66.00 303.00 74.00 303.00 82.00 Z"/>
</g>
<g fill="None" fill-opacity="0.0" stroke="#A2D1F5" stroke-opacity="0.51" stroke-width="0.3"><path d="
M 642.00 198.00 
C 642.00 151.33 642.00 104.67 642.00 58.00
C 637.95 60.84 642.21 72.78 641.00 78.00 C 639.79 83.22 641.51 91.99 641.00 98.00 C 640.49 104.01 641.13 111.65 641.00 118.00 C 640.87 124.35 640.90 132.65 641.00 139.00 C 641.10 145.35 640.54 153.00 641.00 159.00 C 641.46 165.00 639.89 173.81 641.00 179.00 C 642.11 184.19 638.03 195.22 642.00 198.00 Z"/>
</g>
<g fill="None" fill-opacity="0.0" stroke="#0072E6" stroke-opacity="0.98" stroke-width="0.3"><path d="
M 642.00 198.00 
C 644.65 199.86 651.58 197.43 655.00 198.00 C 658.42 198.57 664.42 198.32 668.00 198.00
C 668.04 198.00 668.00 197.00 668.00 197.00
C 659.73 196.25 651.28 197.56 643.00 197.00
C 643.00 151.00 643.00 105.00 643.00 59.00
C 651.26 59.61 660.18 57.74 668.00 60.00
C 668.00 59.50 668.19 58.08 668.00 58.00
C 665.29 56.80 657.95 57.86 655.00 58.00 C 652.05 58.14 644.26 56.42 642.00 58.00
C 642.00 104.67 642.00 151.33 642.00 198.00 Z"/>
</g>
<g fill="None" fill-opacity="0.0" stroke="#0078E7" stroke-opacity="0.85" stroke-width="0.3"><path d="
M 668.00 60.00 
C 668.00 105.67 667.95 151.33 668.00 197.00
C 668.00 197.00 668.04 198.00 668.00 198.00
C 671.48 194.65 668.09 186.08 669.00 181.00 C 669.91 175.92 668.60 168.52 669.00 163.00 C 669.40 157.48 668.83 150.65 669.00 145.00 C 669.17 139.35 668.98 133.65 669.00 128.00 C 669.02 122.35 669.10 115.53 669.00 110.00 C 668.90 104.47 669.29 97.10 669.00 92.00 C 668.71 86.90 669.68 78.06 669.00 74.00 C 668.32 69.94 671.08 58.89 668.00 58.00
C 668.19 58.08 668.00 59.50 668.00 60.00 Z"/>
</g>
<g fill="None" fill-opacity="0.0" stroke="#1E8EEA" stroke-opacity="1.00" stroke-width="0.3"><path d="
M 250.00 141.00 
C 250.26 140.75 251.00 141.00 251.00 141.00
C 266.33 141.00 281.67 141.00 297.00 141.00
C 296.29 133.12 296.29 123.88 297.00 116.00
C 281.67 116.00 266.33 116.00 251.00 116.00
C 250.50 116.00 250.00 116.00 250.00 116.00
C 248.13 106.78 249.05 97.23 249.00 87.00 C 248.95 76.78 264.76 81.91 273.00 81.00 C 281.24 80.09 293.40 81.68 302.00 81.00
C 302.00 73.67 302.00 66.33 302.00 59.00
C 276.00 59.00 250.00 59.00 224.00 59.00
C 224.00 105.00 224.00 151.00 224.00 197.00
C 232.33 197.00 240.67 197.00 249.00 197.00
C 249.40 191.06 248.46 183.81 249.00 178.00 C 249.54 172.19 247.97 164.33 249.00 159.00 C 250.03 153.67 246.32 144.56 250.00 141.00 Z"/>
</g>
<g fill="None" fill-opacity="0.0" stroke="#1E8EE9" stroke-opacity="1.00" stroke-width="0.3"><path d="
M 668.00 197.00 
C 667.95 151.33 668.00 105.67 668.00 60.00
C 660.18 57.74 651.26 59.61 643.00 59.00
C 643.00 105.00 643.00 151.00 643.00 197.00
C 651.28 197.56 659.73 196.25 668.00 197.00 Z"/>
</g>
<g fill="None" fill-opacity="0.0" stroke="#0073E5" stroke-opacity="1.00" stroke-width="0.3"><path d="
M 83.00 71.00 
C 91.58 70.22 100.39 71.34 109.00 71.00
C 110.87 70.61 113.86 71.87 115.00 70.00
C 109.88 69.78 100.72 70.29 96.00 70.00 C 91.28 69.71 80.75 70.16 83.00 71.00 Z"/>
</g>
<g fill="None" fill-opacity="0.0" stroke="#A8D5F7" stroke-opacity="0.87" stroke-width="0.3"><path d="
M 83.00 72.00 
C 84.67 71.99 86.33 72.00 88.00 72.00
C 90.00 72.00 92.00 72.00 94.00 72.00
C 99.00 72.00 104.00 72.00 109.00 72.00
C 109.00 72.00 109.02 71.00 109.00 71.00
C 100.39 71.34 91.58 70.22 83.00 71.00
C 83.00 71.00 82.85 71.95 83.00 72.00 Z"/>
</g>
<g fill="None" fill-opacity="0.0" stroke="#54A7EE" stroke-opacity="0.82" stroke-width="0.3"><path d="
M 250.00 116.00 
C 250.00 116.00 250.50 116.00 251.00 116.00
C 252.02 104.76 250.24 93.26 251.00 82.00
C 247.74 84.29 250.59 94.79 250.00 99.00 C 249.41 103.21 249.59 111.50 250.00 116.00 Z"/>
</g>
<g fill="None" fill-opacity="0.0" stroke="#FCFDFE" stroke-opacity="0.09" stroke-width="0.3"><path d="
M 251.00 116.00 
C 266.33 116.00 281.67 116.00 297.00 116.00
C 297.50 116.00 298.00 116.00 298.00 116.00
C 300.69 118.60 300.09 138.18 298.00 141.00
C 298.00 141.00 298.04 142.00 298.00 142.00
C 299.14 141.97 299.72 140.47 301.00 141.00
C 299.44 130.79 305.93 113.05 291.00 115.00 C 276.07 116.95 267.36 113.54 253.00 115.00
C 253.00 104.33 253.00 93.67 253.00 83.00
C 257.67 83.00 262.33 83.00 267.00 83.00
C 266.96 83.00 267.00 82.00 267.00 82.00
C 263.78 82.00 253.52 80.24 251.00 82.00
C 250.24 93.26 252.02 104.76 251.00 116.00 Z"/>
</g>
<g fill="None" fill-opacity="0.0" stroke="#DFEFFB" stroke-opacity="0.22" stroke-width="0.3"><path d="
M 267.00 83.00 
C 278.84 83.00 291.22 84.06 303.00 83.00
C 303.00 83.00 302.76 82.32 303.00 82.00
C 291.22 80.94 278.84 82.00 267.00 82.00
C 267.00 82.00 266.96 83.00 267.00 83.00 Z"/>
</g>
<g fill="None" fill-opacity="0.0" stroke="#F4FAFE" stroke-opacity="0.19" stroke-width="0.3"><path d="
M 125.00 102.00 
C 124.87 102.04 125.00 103.00 125.00 103.00
C 136.87 102.06 148.13 97.51 158.00 91.00
C 157.89 107.54 153.80 124.60 141.25 136.25 C 128.70 147.90 110.69 152.67 93.00 150.00 C 75.31 147.33 53.09 155.55 57.33 175.67 C 61.57 195.79 67.05 204.06 72.00 223.00
C 73.10 231.22 71.61 239.07 68.00 246.00
L 72.00 246.00
C 78.46 232.12 71.72 214.50 67.32 201.68 C 62.92 188.86 53.34 169.66 63.75 157.75 C 74.16 145.84 97.86 153.20 111.78 150.78 C 125.70 148.36 139.02 144.17 148.08 132.08 C 157.13 119.98 160.98 105.51 160.00 90.00
C 148.20 93.63 137.96 100.97 125.00 102.00 Z"/>
</g>
<g fill="None" fill-opacity="0.0" stroke="#1E8DE9" stroke-opacity="0.99" stroke-width="0.3"><path d="
M 125.00 103.00 
C 107.46 104.39 89.51 101.31 72.00 103.00
C 28.21 107.24 4.65 156.67 28.00 194.00
C 34.44 201.84 41.35 209.63 49.25 216.75 C 57.14 223.88 62.50 234.16 69.00 241.00
C 72.05 235.64 69.81 228.20 72.00 223.00
C 67.05 204.06 61.57 195.79 57.33 175.67 C 53.09 155.55 75.31 147.33 93.00 150.00 C 110.69 152.67 128.70 147.90 141.25 136.25 C 153.80 124.60 157.89 107.54 158.00 91.00
C 148.13 97.51 136.87 102.06 125.00 103.00 Z"/>
</g>
<g fill="None" fill-opacity="0.0" stroke="#F7FBFE" stroke-opacity="0.13" stroke-width="0.3"><path d="
M 419.00 92.00 
C 373.25 85.46 342.80 130.90 359.07 169.93 C 375.35 208.95 427.44 212.27 453.23 181.23 C 479.02 150.19 458.80 97.69 419.00 92.00
M 462.00 141.00 
C 462.57 144.98 462.56 149.09 462.00 153.00
C 460.52 191.66 411.75 213.96 380.31 192.70 C 348.86 171.43 348.11 123.48 379.75 101.75 C 411.38 80.01 460.49 101.34 462.00 141.00 Z"/>
</g>
<g fill="None" fill-opacity="0.0" stroke="#1E8CE9" stroke-opacity="0.98" stroke-width="0.3"><path d="
M 462.00 153.00 
C 462.15 149.04 462.15 144.96 462.00 141.00
C 460.49 101.34 411.38 80.01 379.75 101.75 C 348.11 123.48 348.86 171.43 380.31 192.70 C 411.75 213.96 460.52 191.66 462.00 153.00
M 383.00 152.00 
C 382.99 151.50 383.00 151.00 383.00 151.00
C 381.40 148.84 381.44 144.11 383.00 142.00
C 383.00 141.50 383.00 141.00 383.00 141.00
C 386.72 121.08 409.02 108.35 425.25 121.75 C 441.47 135.15 440.49 159.70 424.92 172.92 C 409.34 186.13 383.48 172.48 383.00 152.00 Z"/>
</g>
<g fill="None" fill-opacity="0.0" stroke="#D4E9FA" stroke-opacity="0.51" stroke-width="0.3"><path d="
M 691.00 94.00 
C 691.25 94.25 691.00 95.00 691.00 95.00
C 692.30 95.45 694.61 95.00 696.00 95.00
C 696.15 94.95 696.00 94.00 696.00 94.00
C 693.79 93.82 693.06 92.19 691.00 94.00 Z"/>
</g>
<g fill="None" fill-opacity="0.0" stroke="#FCFDFE" stroke-opacity="0.20" stroke-width="0.3"><path d="
M 710.00 94.00 
C 711.48 94.13 712.14 93.69 713.00 95.00
C 714.76 97.67 712.27 103.81 715.00 106.00
C 715.81 105.29 716.29 103.73 717.00 103.00
C 714.45 101.20 717.02 98.07 715.75 95.25 C 714.48 92.43 711.51 93.97 710.00 94.00 Z"/>
</g>
<g fill="None" fill-opacity="0.0" stroke="#FCFDFE" stroke-opacity="0.11" stroke-width="0.3"><path d="
M 718.00 102.00 
C 718.41 101.81 719.00 102.00 719.00 102.00
C 739.17 89.46 769.17 90.24 779.00 115.00
C 780.65 119.15 782.09 123.30 783.00 128.00
C 784.25 134.47 784.57 143.91 784.00 151.00 C 783.43 158.09 785.32 168.48 784.00 175.00 C 782.68 181.52 787.43 193.72 783.00 198.00
C 782.74 198.25 782.00 198.00 782.00 198.00
C 778.57 198.00 773.23 198.67 770.00 198.00 C 766.77 197.33 760.53 199.77 758.00 198.00
C 753.87 195.11 758.22 183.38 757.00 178.00 C 755.78 172.62 757.59 163.16 757.00 157.00 C 756.41 150.84 757.35 142.37 757.00 136.00
C 756.86 133.45 756.86 131.35 756.00 129.00
C 751.70 121.83 744.47 116.38 736.00 117.00 C 727.53 117.62 717.10 120.38 716.00 130.00
C 716.61 136.84 716.20 146.34 716.00 153.00 C 715.81 159.66 717.13 170.20 716.00 176.00 C 714.87 181.80 719.30 194.99 715.00 198.00
C 712.80 199.54 704.78 197.78 702.00 198.00 C 699.22 198.22 690.54 199.20 689.00 197.00
C 685.86 192.51 690.25 182.81 689.00 177.00 C 687.75 171.19 689.39 162.32 689.00 156.00 C 688.61 149.68 688.79 141.38 689.00 135.00 C 689.21 128.62 688.06 120.02 689.00 114.00 C 689.94 107.98 686.22 98.69 690.00 94.00
C 689.00 94.00 688.00 94.00 687.00 94.00
C 687.17 102.55 686.77 111.49 687.00 120.00 C 687.23 128.51 686.54 136.53 687.00 145.00 C 687.46 153.47 686.01 161.49 687.00 170.00 C 687.99 178.51 684.80 186.31 687.01 194.99 C 689.22 203.66 699.19 195.96 708.00 199.00 C 716.81 202.04 719.47 191.82 717.78 184.22 C 716.09 176.62 718.00 169.62 717.22 162.22 C 716.43 154.82 717.02 145.57 717.01 138.01 C 716.99 130.44 718.87 124.66 724.92 120.92 C 730.98 117.19 738.54 117.00 744.92 120.08 C 751.29 123.16 753.31 128.55 754.67 135.33 C 756.03 142.11 753.57 152.29 754.07 158.93 C 754.58 165.56 754.39 172.06 755.00 179.00 C 755.61 185.94 751.47 198.66 760.00 199.00 C 768.53 199.34 776.52 198.75 785.00 199.00
C 785.25 184.89 784.66 166.70 785.00 153.00 C 785.34 139.30 785.92 123.23 780.77 112.23 C 775.62 101.23 764.98 94.20 754.00 93.00 C 743.02 91.80 723.92 92.07 718.00 102.00 Z"/>
</g>
<g fill="None" fill-opacity="0.0" stroke="#F8FBFE" stroke-opacity="0.16" stroke-width="0.3"><path d="
M 494.00 95.00 
C 486.09 94.01 473.99 92.98 466.01 94.01 C 458.03 95.04 465.91 106.89 467.08 112.92 C 468.25 118.95 472.33 127.27 474.02 133.98 C 475.71 140.69 479.53 148.79 481.02 155.98 C 482.52 163.16 486.04 169.88 488.07 176.93 C 490.11 183.97 492.43 191.80 494.00 199.00
C 503.23 199.58 511.69 198.23 521.00 199.00 C 530.30 199.77 529.39 189.45 531.68 182.68 C 533.97 175.91 535.74 168.90 538.07 162.07 C 540.41 155.25 543.29 148.34 544.00 141.00
C 549.76 149.77 549.95 163.17 554.69 172.31 C 559.44 181.44 558.00 197.15 569.00 199.00 C 580.00 200.85 598.00 200.77 599.00 188.00 C 600.00 175.23 606.83 167.64 609.01 156.01 C 611.19 144.38 616.19 135.98 619.01 125.01 C 621.83 114.04 626.43 104.93 629.00 94.00
C 621.28 95.76 607.10 91.64 600.03 94.03 C 592.96 96.42 595.48 107.91 591.98 113.98 C 588.47 120.04 587.65 129.27 584.98 135.98 C 582.30 142.68 582.07 151.63 579.00 158.00
C 575.15 149.51 573.25 142.75 570.93 133.07 C 568.61 123.40 565.33 119.79 563.32 108.68 C 561.32 97.57 557.53 93.83 545.00 94.00 C 532.47 94.17 529.42 97.37 527.32 108.32 C 525.22 119.27 522.30 124.02 519.31 133.31 C 516.31 142.60 514.67 148.10 510.00 156.00
C 506.05 135.21 496.73 116.02 494.00 95.00
M 513.00 161.00 
C 513.93 158.69 515.42 155.11 516.00 153.00
C 516.93 146.62 519.49 139.63 521.78 133.78 C 524.07 127.92 524.50 119.56 527.33 114.33 C 530.16 109.09 529.57 99.43 534.00 96.00
C 536.40 94.15 552.89 93.34 556.00 95.00
C 560.28 97.28 559.46 107.55 561.98 112.02 C 564.49 116.50 565.31 124.42 567.32 129.68 C 569.33 134.94 571.09 141.47 572.93 147.07 C 574.76 152.68 576.59 159.18 578.00 165.00
C 586.61 142.44 592.26 118.16 600.00 95.00
C 608.67 95.00 617.33 95.00 626.00 95.00
C 624.26 106.17 618.46 114.94 616.07 126.07 C 613.69 137.21 608.56 145.49 606.07 157.07 C 603.58 168.66 598.25 175.25 596.07 188.07 C 593.90 200.89 577.53 198.72 565.00 198.00
C 558.83 176.94 552.16 155.42 545.00 135.00
C 537.84 155.46 531.00 176.86 525.00 198.00
C 515.33 198.00 505.67 198.00 496.00 198.00
C 495.52 190.66 491.45 184.07 490.02 176.98 C 488.60 169.88 484.80 163.79 483.22 156.78 C 481.65 149.77 478.44 142.17 476.68 135.32 C 474.92 128.48 471.65 121.55 470.07 114.93 C 468.50 108.30 463.47 99.33 466.00 95.00
C 468.70 93.84 475.04 94.93 478.00 95.00 C 480.96 95.07 487.47 93.65 490.00 95.00
C 494.11 97.20 493.03 107.14 495.33 111.67 C 497.63 116.21 498.88 123.91 500.78 129.22 C 502.67 134.53 504.01 141.50 505.93 147.07 C 507.85 152.65 509.64 159.17 511.00 165.00
C 512.35 164.27 511.96 162.17 513.00 161.00 Z"/>
</g>
<g fill="None" fill-opacity="0.0" stroke="#73B8F1" stroke-opacity="0.69" stroke-width="0.3"><path d="
M 689.00 197.00 
C 691.25 189.53 689.43 180.24 690.00 172.00 C 690.57 163.76 689.28 154.13 690.00 146.00 C 690.72 137.87 688.65 127.66 690.00 120.00 C 691.35 112.34 686.66 100.85 691.00 95.00
C 691.00 95.00 691.25 94.25 691.00 94.00
C 691.00 94.00 690.49 94.06 690.00 94.00
C 686.22 98.69 689.94 107.98 689.00 114.00 C 688.06 120.02 689.21 128.62 689.00 135.00 C 688.79 141.38 688.61 149.68 689.00 156.00 C 689.39 162.32 687.75 171.19 689.00 177.00 C 690.25 182.81 685.86 192.51 689.00 197.00 Z"/>
</g>
<g fill="None" fill-opacity="0.0" stroke="#B4D9F7" stroke-opacity="0.68" stroke-width="0.3"><path d="
M 696.00 95.00 
C 701.67 95.00 707.33 95.00 713.00 95.00
C 712.14 93.69 711.48 94.13 710.00 94.00
C 705.37 93.60 700.63 94.38 696.00 94.00
C 696.00 94.00 696.15 94.95 696.00 95.00 Z"/>
</g>
<g fill="None" fill-opacity="0.0" stroke="#187EE8" stroke-opacity="0.89" stroke-width="0.3"><path d="
M 719.00 102.00 
C 718.00 103.30 716.79 104.61 716.00 106.00
C 725.66 96.63 739.36 94.79 752.07 95.93 C 764.79 97.06 774.12 106.15 779.00 115.00
C 769.17 90.24 739.17 89.46 719.00 102.00 Z"/>
</g>
<g fill="None" fill-opacity="0.0" stroke="#1E8CE9" stroke-opacity="0.98" stroke-width="0.3"><path d="
M 556.00 95.00 
C 550.57 99.15 539.85 92.88 534.00 96.00
C 529.57 99.43 530.16 109.09 527.33 114.33 C 524.50 119.56 524.07 127.92 521.78 133.78 C 519.49 139.63 516.93 146.62 516.00 153.00
C 515.45 156.79 514.84 158.09 513.00 161.00
C 511.96 162.17 512.35 164.27 511.00 165.00
C 509.64 159.17 507.85 152.65 505.93 147.07 C 504.01 141.50 502.67 134.53 500.78 129.22 C 498.88 123.91 497.63 116.21 495.33 111.67 C 493.03 107.14 494.11 97.20 490.00 95.00
C 483.97 99.31 471.66 93.11 466.00 95.00
C 463.47 99.33 468.50 108.30 470.07 114.93 C 471.65 121.55 474.92 128.48 476.68 135.32 C 478.44 142.17 481.65 149.77 483.22 156.78 C 484.80 163.79 488.60 169.88 490.02 176.98 C 491.45 184.07 495.52 190.66 496.00 198.00
C 505.67 198.00 515.33 198.00 525.00 198.00
C 531.00 176.86 537.84 155.46 545.00 135.00
C 552.16 155.42 558.83 176.94 565.00 198.00
C 577.53 198.72 593.90 200.89 596.07 188.07 C 598.25 175.25 603.58 168.66 606.07 157.07 C 608.56 145.49 613.69 137.21 616.07 126.07 C 618.46 114.94 624.26 106.17 626.00 95.00
C 617.33 95.00 608.67 95.00 600.00 95.00
C 592.26 118.16 586.61 142.44 578.00 165.00
C 576.59 159.18 574.76 152.68 572.93 147.07 C 571.09 141.47 569.33 134.94 567.32 129.68 C 565.31 124.42 564.49 116.50 561.98 112.02 C 559.46 107.55 560.28 97.28 556.00 95.00 Z"/>
</g>
<g fill="None" fill-opacity="0.0" stroke="#59B1F1" stroke-opacity="0.98" stroke-width="0.3"><path d="
M 490.00 95.00 
C 487.47 93.65 480.96 95.07 478.00 95.00 C 475.04 94.93 468.70 93.84 466.00 95.00
C 471.66 93.11 483.97 99.31 490.00 95.00 Z"/>
</g>
<g fill="None" fill-opacity="0.0" stroke="#76BDF4" stroke-opacity="0.95" stroke-width="0.3"><path d="
M 534.00 96.00 
C 539.85 92.88 550.57 99.15 556.00 95.00
C 552.89 93.34 536.40 94.15 534.00 96.00 Z"/>
</g>
<g fill="None" fill-opacity="0.0" stroke="#0974E6" stroke-opacity="0.98" stroke-width="0.3"><path d="
M 689.00 197.00 
C 690.54 199.20 699.22 198.22 702.00 198.00 C 704.78 197.78 712.80 199.54 715.00 198.00
C 716.52 175.47 712.97 152.48 715.00 130.00
C 715.34 130.23 713.19 144.54 714.00 150.00 C 714.81 155.46 713.59 166.33 714.00 173.00 C 714.41 179.67 713.70 190.00 714.00 197.00
C 706.33 197.00 698.67 197.00 691.00 197.00
C 691.00 163.33 691.00 129.67 691.00 96.00
C 698.00 96.00 705.00 96.00 712.00 96.00
C 712.00 99.67 712.00 103.33 712.00 107.00
C 712.95 105.31 714.53 107.74 715.00 106.00
C 712.27 103.81 714.76 97.67 713.00 95.00
C 707.33 95.00 701.67 95.00 696.00 95.00
C 694.61 95.00 692.30 95.45 691.00 95.00
C 686.66 100.85 691.35 112.34 690.00 120.00 C 688.65 127.66 690.72 137.87 690.00 146.00 C 689.28 154.13 690.57 163.76 690.00 172.00 C 689.43 180.24 691.25 189.53 689.00 197.00 Z"/>
</g>
<g fill="None" fill-opacity="0.0" stroke="#1E8EE9" stroke-opacity="1.00" stroke-width="0.3"><path d="
M 719.00 102.00 
C 719.00 102.00 718.41 101.81 718.00 102.00
C 717.81 102.32 717.25 102.75 717.00 103.00
C 716.29 103.73 715.81 105.29 715.00 106.00
C 714.53 107.74 712.95 105.31 712.00 107.00
C 712.00 103.33 712.00 99.67 712.00 96.00
C 705.00 96.00 698.00 96.00 691.00 96.00
C 691.00 129.67 691.00 163.33 691.00 197.00
C 698.67 197.00 706.33 197.00 714.00 197.00
C 713.70 190.00 714.41 179.67 714.00 173.00 C 713.59 166.33 714.81 155.46 714.00 150.00 C 713.19 144.54 715.34 130.23 715.00 130.00
C 715.35 130.23 716.00 130.00 716.00 130.00
C 717.10 120.38 727.53 117.62 736.00 117.00 C 744.47 116.38 751.70 121.83 756.00 129.00
C 766.76 146.94 754.17 176.50 759.00 197.00
C 766.67 197.00 774.33 197.00 782.00 197.00
C 781.96 174.12 782.61 150.07 783.00 128.00
C 782.09 123.30 780.65 119.15 779.00 115.00
C 774.12 106.15 764.79 97.06 752.07 95.93 C 739.36 94.79 725.66 96.63 716.00 106.00
C 716.79 104.61 718.00 103.30 719.00 102.00 Z"/>
</g>
<g fill="None" fill-opacity="0.0" stroke="#FDFEFF" stroke-opacity="0.02" stroke-width="0.3"><path d="
M 72.00 103.00 
C 89.51 101.31 107.46 104.39 125.00 103.00
C 125.00 103.00 124.87 102.04 125.00 102.00
C 107.51 103.39 88.87 101.37 72.00 103.00 Z"/>
</g>
<g fill="None" fill-opacity="0.0" stroke="#F4FAFE" stroke-opacity="0.18" stroke-width="0.3"><path d="
M 63.00 246.00 
L 65.00 246.00
C 64.39 243.73 64.56 241.32 64.00 239.00
C 55.56 221.94 38.13 210.19 28.00 194.00
C 4.65 156.67 28.21 107.24 72.00 103.00
C 36.47 106.44 13.27 134.39 17.01 169.99 C 20.75 205.59 54.64 214.43 63.00 246.00 Z"/>
</g>
<g fill="None" fill-opacity="0.0" stroke="#036EE5" stroke-opacity="0.89" stroke-width="0.3"><path d="
M 297.00 141.00 
C 297.00 141.00 297.75 140.75 298.00 141.00
C 298.71 133.12 298.71 123.88 298.00 116.00
C 298.00 116.00 297.50 116.00 297.00 116.00
C 296.29 123.88 296.29 133.12 297.00 141.00 Z"/>
</g>
<g fill="None" fill-opacity="0.0" stroke="#D5E9F6" stroke-opacity="0.56" stroke-width="0.3"><path d="
M 298.00 141.00 
C 300.09 138.18 300.69 118.60 298.00 116.00
C 298.71 123.88 298.71 133.12 298.00 141.00 Z"/>
</g>
<g fill="None" fill-opacity="0.0" stroke="#F7FBFE" stroke-opacity="0.16" stroke-width="0.3"><path d="
M 383.00 141.00 
C 385.76 143.66 383.08 149.40 383.00 152.00
C 383.48 172.48 409.34 186.13 424.92 172.92 C 440.49 159.70 441.47 135.15 425.25 121.75 C 409.02 108.35 386.72 121.08 383.00 141.00
M 414.00 117.00 
C 445.44 122.63 438.76 181.96 406.00 177.00 C 373.24 172.04 380.65 111.02 414.00 117.00 Z"/>
</g>
<g fill="None" fill-opacity="0.0" stroke="#000000" stroke-opacity="0.00" stroke-width="0.3"><path d="
M 414.00 117.00 
C 380.65 111.02 373.24 172.04 406.00 177.00 C 438.76 181.96 445.44 122.63 414.00 117.00 Z"/>
</g>
<g fill="None" fill-opacity="0.0" stroke="#0E86E9" stroke-opacity="0.86" stroke-width="0.3"><path d="
M 782.00 197.00 
C 782.00 197.50 782.00 198.00 782.00 198.00
C 782.00 198.00 782.74 198.25 783.00 198.00
C 785.09 174.86 781.43 151.19 783.00 128.00
C 782.61 150.07 781.96 174.12 782.00 197.00 Z"/>
</g>
<g fill="None" fill-opacity="0.0" stroke="#FEFEFE" stroke-opacity="0.32" stroke-width="0.3"><path d="
M 783.00 198.00 
C 787.43 193.72 782.68 181.52 784.00 175.00 C 785.32 168.48 783.43 158.09 784.00 151.00 C 784.57 143.91 784.25 134.47 783.00 128.00
C 781.43 151.19 785.09 174.86 783.00 198.00 Z"/>
</g>
<g fill="None" fill-opacity="0.0" stroke="#0170E6" stroke-opacity="0.97" stroke-width="0.3"><path d="
M 757.00 136.00 
C 760.19 155.62 756.69 177.59 758.00 198.00
C 760.53 199.77 766.77 197.33 770.00 198.00 C 773.23 198.67 778.57 198.00 782.00 198.00
C 782.00 198.00 782.00 197.50 782.00 197.00
C 774.33 197.00 766.67 197.00 759.00 197.00
C 754.17 176.50 766.76 146.94 756.00 129.00
C 756.86 131.35 756.86 133.45 757.00 136.00 Z"/>
</g>
<g fill="None" fill-opacity="0.0" stroke="#C0DFF8" stroke-opacity="0.65" stroke-width="0.3"><path d="
M 715.00 198.00 
C 719.30 194.99 714.87 181.80 716.00 176.00 C 717.13 170.20 715.81 159.66 716.00 153.00 C 716.20 146.34 716.61 136.84 716.00 130.00
C 716.00 130.00 715.35 130.23 715.00 130.00
C 712.97 152.48 716.52 175.47 715.00 198.00 Z"/>
</g>
<g fill="None" fill-opacity="0.0" stroke="#8EC6F4" stroke-opacity="0.75" stroke-width="0.3"><path d="
M 758.00 198.00 
C 756.69 177.59 760.19 155.62 757.00 136.00
C 757.35 142.37 756.41 150.84 757.00 157.00 C 757.59 163.16 755.78 172.62 757.00 178.00 C 758.22 183.38 753.87 195.11 758.00 198.00 Z"/>
</g>
<g fill="None" fill-opacity="0.0" stroke="#59A9ED" stroke-opacity="0.83" stroke-width="0.3"><path d="
M 251.00 197.00 
C 253.88 192.88 249.80 183.23 251.00 178.00 C 252.20 172.77 250.69 164.61 251.00 159.00 C 251.31 153.39 251.51 146.64 251.00 141.00
C 251.00 141.00 250.26 140.75 250.00 141.00
C 248.34 159.30 250.41 179.40 251.00 197.00 Z"/>
</g>
<g fill="None" fill-opacity="0.0" stroke="#FFFFFD" stroke-opacity="0.32" stroke-width="0.3"><path d="
M 383.00 142.00 
C 383.00 145.00 383.00 148.00 383.00 151.00
C 383.00 151.00 382.99 151.50 383.00 152.00
C 383.08 149.40 385.76 143.66 383.00 141.00
C 383.00 141.00 383.00 141.50 383.00 142.00 Z"/>
</g>
<g fill="None" fill-opacity="0.0" stroke="#98CCF6" stroke-opacity="0.49" stroke-width="0.3"><path d="
M 462.00 153.00 
C 462.56 149.09 462.57 144.98 462.00 141.00
C 462.15 144.96 462.15 149.04 462.00 153.00 Z"/>
</g>
<g fill="None" fill-opacity="0.0" stroke="#8BC5F4" stroke-opacity="0.69" stroke-width="0.3"><path d="
M 383.00 151.00 
C 383.00 148.00 383.00 145.00 383.00 142.00
C 381.44 144.11 381.40 148.84 383.00 151.00 Z"/>
</g>
<g fill="None" fill-opacity="0.0" stroke="#2483E7" stroke-opacity="0.79" stroke-width="0.3"><path d="
M 513.00 161.00 
C 514.84 158.09 515.45 156.79 516.00 153.00
C 515.42 155.11 513.93 158.69 513.00 161.00 Z"/>
</g>
<g fill="None" fill-opacity="0.0" stroke="#197DE7" stroke-opacity="0.91" stroke-width="0.3"><path d="
M 64.00 239.00 
C 65.02 241.06 67.66 243.10 67.00 246.00
L 68.00 246.00
C 71.61 239.07 73.10 231.22 72.00 223.00
C 69.81 228.20 72.05 235.64 69.00 241.00
C 62.50 234.16 57.14 223.88 49.25 216.75 C 41.35 209.63 34.44 201.84 28.00 194.00
C 38.13 210.19 55.56 221.94 64.00 239.00 Z"/>
</g>
<g fill="None" fill-opacity="0.0" stroke="#F7FBFD" stroke-opacity="0.49" stroke-width="0.3"><path d="
M 65.00 246.00 
L 67.00 246.00
C 67.66 243.10 65.02 241.06 64.00 239.00
C 64.56 241.32 64.39 243.73 65.00 246.00 Z"/>
</g>
<g fill="#000000" fill-opacity="0.00" stroke="None">
<path d="
M 0.00 246.00 
L 63.00 246.00
C 54.64 214.43 20.75 205.59 17.01 169.99 C 13.27 134.39 36.47 106.44 72.00 103.00
C 88.87 101.37 107.51 103.39 125.00 102.00
C 137.96 100.97 148.20 93.63 160.00 90.00
C 160.98 105.51 157.13 119.98 148.08 132.08 C 139.02 144.17 125.70 148.36 111.78 150.78 C 97.86 153.20 74.16 145.84 63.75 157.75 C 53.34 169.66 62.92 188.86 67.32 201.68 C 71.72 214.50 78.46 232.12 72.00 246.00
L 787.00 246.00
L 787.00 0.00
L 201.00 0.00
C 199.76 23.23 193.69 45.94 172.75 60.75 C 151.82 75.57 119.13 74.44 94.00 72.00
C 92.00 72.00 90.00 72.00 88.00 72.00
C 79.19 72.85 67.47 74.87 58.98 77.98 C 50.48 81.08 44.56 85.82 37.75 91.75 C 30.94 97.68 27.42 103.69 22.70 111.70 C 17.98 119.71 17.33 128.21 13.01 137.01 C 8.69 145.81 2.07 129.54 2.07 120.93 C 2.07 112.31 0.69 95.49 2.78 86.78 C 4.87 78.07 7.62 68.22 11.32 60.32 C 15.03 52.42 19.48 46.23 25.75 39.75 C 32.02 33.28 37.93 29.19 46.23 25.23 C 54.53 21.27 64.16 19.37 74.00 18.00 C 83.84 16.63 97.35 17.01 108.00 17.00 C 118.65 16.99 132.48 17.03 143.00 17.00 C 153.52 16.97 164.73 15.76 174.02 13.02 C 183.32 10.29 189.15 6.01 196.00 0.00
L 0.00 0.00
L 0.00 246.00
M 316.00 54.00 
C 322.94 53.37 331.06 53.37 338.00 54.00
C 339.86 53.50 342.10 54.38 344.00 54.00
C 344.05 62.92 343.93 71.00 344.00 80.00 C 344.07 89.00 343.87 97.83 344.00 107.00 C 344.13 116.17 343.72 124.54 344.00 134.00 C 344.28 143.46 343.38 150.94 344.00 161.00 C 344.62 171.06 342.62 176.64 344.00 188.00 C 345.38 199.36 338.77 198.79 328.00 199.00 C 317.23 199.21 312.62 197.96 314.00 187.00 C 315.38 176.04 313.34 169.85 314.00 160.00 C 314.66 150.15 313.62 142.32 314.00 133.00 C 314.38 123.68 313.64 114.99 314.00 106.00 C 314.36 97.01 313.43 87.65 314.00 79.00 C 314.57 70.35 311.94 60.03 316.00 54.00
M 303.00 83.00 
C 291.22 84.06 278.84 83.00 267.00 83.00
C 262.33 83.00 257.67 83.00 253.00 83.00
C 253.00 93.67 253.00 104.33 253.00 115.00
C 267.36 113.54 276.07 116.95 291.00 115.00 C 305.93 113.05 299.44 130.79 301.00 141.00
C 299.72 140.47 299.14 141.97 298.00 142.00
C 283.12 143.34 267.91 140.99 253.00 142.00
C 253.63 160.59 251.71 179.82 254.00 198.00
C 243.16 199.49 230.83 199.73 220.00 198.00
C 222.00 186.62 220.62 174.84 221.00 163.00 C 221.38 151.16 220.54 137.79 221.00 126.00 C 221.46 114.21 220.13 101.47 221.00 90.00 C 221.87 78.53 218.08 65.13 223.00 57.00
C 236.86 55.75 252.17 57.29 266.00 57.00 C 279.83 56.71 294.37 55.59 307.00 59.00
C 305.03 66.20 305.82 74.75 307.00 82.00
C 305.46 81.63 304.60 83.43 303.00 83.00
M 672.00 198.00 
C 663.74 197.80 651.34 201.63 643.00 199.00 C 634.66 196.37 640.15 180.42 639.00 172.00 C 637.85 163.58 639.40 151.28 639.00 142.00 C 638.60 132.72 638.98 120.50 639.00 111.00 C 639.02 101.50 638.51 90.26 639.00 81.00 C 639.49 71.74 639.38 65.48 640.00 57.00
C 653.46 56.97 672.95 52.52 671.00 69.00 C 669.05 85.48 671.82 96.68 671.00 112.00 C 670.18 127.32 671.23 140.18 671.00 155.00 C 670.77 169.82 670.37 183.73 672.00 198.00
M 419.00 92.00 
C 458.80 97.69 479.02 150.19 453.23 181.23 C 427.44 212.27 375.35 208.95 359.07 169.93 C 342.80 130.90 373.25 85.46 419.00 92.00
M 696.00 94.00 
C 700.63 94.38 705.37 93.60 710.00 94.00
C 711.51 93.97 714.48 92.43 715.75 95.25 C 717.02 98.07 714.45 101.20 717.00 103.00
C 717.25 102.75 717.81 102.32 718.00 102.00
C 723.92 92.07 743.02 91.80 754.00 93.00 C 764.98 94.20 775.62 101.23 780.77 112.23 C 785.92 123.23 785.34 139.30 785.00 153.00 C 784.66 166.70 785.25 184.89 785.00 199.00
C 776.52 198.75 768.53 199.34 760.00 199.00 C 751.47 198.66 755.61 185.94 755.00 179.00 C 754.39 172.06 754.58 165.56 754.07 158.93 C 753.57 152.29 756.03 142.11 754.67 135.33 C 753.31 128.55 751.29 123.16 744.92 120.08 C 738.54 117.00 730.98 117.19 724.92 120.92 C 718.87 124.66 716.99 130.44 717.01 138.01 C 717.02 145.57 716.43 154.82 717.22 162.22 C 718.00 169.62 716.09 176.62 717.78 184.22 C 719.47 191.82 716.81 202.04 708.00 199.00 C 699.19 195.96 689.22 203.66 687.01 194.99 C 684.80 186.31 687.99 178.51 687.00 170.00 C 686.01 161.49 687.46 153.47 687.00 145.00 C 686.54 136.53 687.23 128.51 687.00 120.00 C 686.77 111.49 687.17 102.55 687.00 94.00
C 688.00 94.00 689.00 94.00 690.00 94.00
C 690.49 94.06 691.00 94.00 691.00 94.00
C 693.06 92.19 693.79 93.82 696.00 94.00
M 494.00 95.00 
C 496.73 116.02 506.05 135.21 510.00 156.00
C 514.67 148.10 516.31 142.60 519.31 133.31 C 522.30 124.02 525.22 119.27 527.32 108.32 C 529.42 97.37 532.47 94.17 545.00 94.00 C 557.53 93.83 561.32 97.57 563.32 108.68 C 565.33 119.79 568.61 123.40 570.93 133.07 C 573.25 142.75 575.15 149.51 579.00 158.00
C 582.07 151.63 582.30 142.68 584.98 135.98 C 587.65 129.27 588.47 120.04 591.98 113.98 C 595.48 107.91 592.96 96.42 600.03 94.03 C 607.10 91.64 621.28 95.76 629.00 94.00
C 626.43 104.93 621.83 114.04 619.01 125.01 C 616.19 135.98 611.19 144.38 609.01 156.01 C 606.83 167.64 600.00 175.23 599.00 188.00 C 598.00 200.77 580.00 200.85 569.00 199.00 C 558.00 197.15 559.44 181.44 554.69 172.31 C 549.95 163.17 549.76 149.77 544.00 141.00
C 543.29 148.34 540.41 155.25 538.07 162.07 C 535.74 168.90 533.97 175.91 531.68 182.68 C 529.39 189.45 530.30 199.77 521.00 199.00 C 511.69 198.23 503.23 199.58 494.00 199.00
C 492.43 191.80 490.11 183.97 488.07 176.93 C 486.04 169.88 482.52 163.16 481.02 155.98 C 479.53 148.79 475.71 140.69 474.02 133.98 C 472.33 127.27 468.25 118.95 467.08 112.92 C 465.91 106.89 458.03 95.04 466.01 94.01 C 473.99 92.98 486.09 94.01 494.00 95.00 Z"/>
</g>
<g fill="#F8FBFE" fill-opacity="0.15" stroke="None">
<path d="
M 88.00 72.00 
C 86.33 72.00 84.67 71.99 83.00 72.00
C 44.53 72.27 17.85 104.65 9.00 139.00
C 1.94 107.56 2.35 71.12 23.00 45.00
C 25.37 41.68 28.73 38.34 32.00 36.00
C 80.95 1.04 148.98 35.47 198.00 2.00
C 196.48 23.03 191.38 42.66 174.25 57.25 C 157.11 71.83 131.54 73.22 109.00 72.00
C 104.00 72.00 99.00 72.00 94.00 72.00
C 119.13 74.44 151.82 75.57 172.75 60.75 C 193.69 45.94 199.76 23.23 201.00 0.00
L 196.00 0.00
C 189.15 6.01 183.32 10.29 174.02 13.02 C 164.73 15.76 153.52 16.97 143.00 17.00 C 132.48 17.03 118.65 16.99 108.00 17.00 C 97.35 17.01 83.84 16.63 74.00 18.00 C 64.16 19.37 54.53 21.27 46.23 25.23 C 37.93 29.19 32.02 33.28 25.75 39.75 C 19.48 46.23 15.03 52.42 11.32 60.32 C 7.62 68.22 4.87 78.07 2.78 86.78 C 0.69 95.49 2.07 112.31 2.07 120.93 C 2.07 129.54 8.69 145.81 13.01 137.01 C 17.33 128.21 17.98 119.71 22.70 111.70 C 27.42 103.69 30.94 97.68 37.75 91.75 C 44.56 85.82 50.48 81.08 58.98 77.98 C 67.47 74.87 79.19 72.85 88.00 72.00 Z"/>
</g>
<g fill="#1F8DE9" fill-opacity="0.99" stroke="None">
<path d="
M 32.00 36.00 
C 29.25 38.31 25.26 42.30 23.00 45.00
C 2.35 71.12 1.94 107.56 9.00 139.00
C 17.85 104.65 44.53 72.27 83.00 72.00
C 82.85 71.95 83.00 71.00 83.00 71.00
C 80.75 70.16 91.28 69.71 96.00 70.00 C 100.72 70.29 109.88 69.78 115.00 70.00
C 113.86 71.87 110.87 70.61 109.00 71.00
C 109.02 71.00 109.00 72.00 109.00 72.00
C 131.54 73.22 157.11 71.83 174.25 57.25 C 191.38 42.66 196.48 23.03 198.00 2.00
C 148.98 35.47 80.95 1.04 32.00 36.00 Z"/>
</g>
<g fill="#F7FAFD" fill-opacity="0.41" stroke="None">
<path d="
M 23.00 45.00 
C 25.26 42.30 29.25 38.31 32.00 36.00
C 28.73 38.34 25.37 41.68 23.00 45.00 Z"/>
</g>
<g fill="#FBFDFE" fill-opacity="0.11" stroke="None">
<path d="
M 338.00 54.00 
C 338.04 54.00 338.00 55.00 338.00 55.00
C 338.68 55.00 340.40 54.71 341.00 55.00
C 344.88 56.91 340.96 69.00 342.00 74.00 C 343.04 79.00 341.51 89.02 342.00 95.00 C 342.49 100.98 341.79 108.52 342.00 115.00 C 342.21 121.48 341.90 129.31 342.00 136.00 C 342.10 142.69 341.96 149.19 342.00 156.00 C 342.04 162.81 341.98 170.10 342.00 177.00 C 342.02 183.90 341.98 191.07 342.00 198.00
C 333.33 198.00 324.67 198.00 316.00 198.00
C 316.00 150.33 316.00 102.67 316.00 55.00
C 316.00 54.50 316.00 54.00 316.00 54.00
C 311.94 60.03 314.57 70.35 314.00 79.00 C 313.43 87.65 314.36 97.01 314.00 106.00 C 313.64 114.99 314.38 123.68 314.00 133.00 C 313.62 142.32 314.66 150.15 314.00 160.00 C 313.34 169.85 315.38 176.04 314.00 187.00 C 312.62 197.96 317.23 199.21 328.00 199.00 C 338.77 198.79 345.38 199.36 344.00 188.00 C 342.62 176.64 344.62 171.06 344.00 161.00 C 343.38 150.94 344.28 143.46 344.00 134.00 C 343.72 124.54 344.13 116.17 344.00 107.00 C 343.87 97.83 344.07 89.00 344.00 80.00 C 343.93 71.00 344.05 62.92 344.00 54.00
C 342.10 54.38 339.86 53.50 338.00 54.00 Z"/>
</g>
<g fill="#FCFEFE" fill-opacity="0.37" stroke="None">
<path d="
M 316.00 55.00 
C 316.25 55.25 317.00 55.00 317.00 55.00
C 324.00 55.00 331.00 55.00 338.00 55.00
C 338.00 55.00 338.04 54.00 338.00 54.00
C 331.06 53.37 322.94 53.37 316.00 54.00
C 316.00 54.00 316.00 54.50 316.00 55.00 Z"/>
</g>
<g fill="#006CE4" fill-opacity="0.86" stroke="None">
<path d="
M 341.00 55.00 
C 341.00 102.33 341.00 149.67 341.00 197.00
C 333.00 197.00 325.00 197.00 317.00 197.00
C 317.00 149.67 317.00 102.33 317.00 55.00
C 317.00 55.00 316.25 55.25 316.00 55.00
C 316.00 102.67 316.00 150.33 316.00 198.00
C 324.67 198.00 333.33 198.00 342.00 198.00
C 341.98 191.07 342.02 183.90 342.00 177.00 C 341.98 170.10 342.04 162.81 342.00 156.00 C 341.96 149.19 342.10 142.69 342.00 136.00 C 341.90 129.31 342.21 121.48 342.00 115.00 C 341.79 108.52 342.49 100.98 342.00 95.00 C 341.51 89.02 343.04 79.00 342.00 74.00 C 340.96 69.00 344.88 56.91 341.00 55.00 Z"/>
</g>
<g fill="#1D8DE9" fill-opacity="1.00" stroke="None">
<path d="
M 341.00 55.00 
C 340.40 54.71 338.68 55.00 338.00 55.00
C 331.00 55.00 324.00 55.00 317.00 55.00
C 317.00 102.33 317.00 149.67 317.00 197.00
C 325.00 197.00 333.00 197.00 341.00 197.00
C 341.00 149.67 341.00 102.33 341.00 55.00 Z"/>
</g>
<g fill="#FEFEFE" fill-opacity="0.21" stroke="None">
<path d="
M 298.00 142.00 
C 298.04 142.00 298.00 141.00 298.00 141.00
C 297.75 140.75 297.00 141.00 297.00 141.00
C 281.67 141.00 266.33 141.00 251.00 141.00
C 251.51 146.64 251.31 153.39 251.00 159.00 C 250.69 164.61 252.20 172.77 251.00 178.00 C 249.80 183.23 253.88 192.88 251.00 197.00
C 248.84 200.09 241.86 197.20 238.00 198.00 C 234.14 198.80 227.14 197.40 223.00 198.00
C 223.00 151.33 223.00 104.67 223.00 58.00
C 223.00 57.50 223.00 57.00 223.00 57.00
C 218.08 65.13 221.87 78.53 221.00 90.00 C 220.13 101.47 221.46 114.21 221.00 126.00 C 220.54 137.79 221.38 151.16 221.00 163.00 C 220.62 174.84 222.00 186.62 220.00 198.00
C 230.83 199.73 243.16 199.49 254.00 198.00
C 251.71 179.82 253.63 160.59 253.00 142.00
C 267.91 140.99 283.12 143.34 298.00 142.00 Z"/>
</g>
<g fill="#FEFEFE" fill-opacity="0.08" stroke="None">
<path d="
M 223.00 58.00 
C 229.46 58.58 236.59 57.51 243.00 58.00 C 249.41 58.49 256.80 57.27 263.00 58.00 C 269.20 58.73 277.33 56.55 283.00 58.00 C 288.67 59.45 298.51 54.86 303.00 58.00
C 305.53 59.77 303.70 66.91 304.00 70.00 C 304.30 73.09 304.74 79.65 303.00 82.00
C 302.76 82.32 303.00 83.00 303.00 83.00
C 304.60 83.43 305.46 81.63 307.00 82.00
C 305.82 74.75 305.03 66.20 307.00 59.00
C 294.37 55.59 279.83 56.71 266.00 57.00 C 252.17 57.29 236.86 55.75 223.00 57.00
C 223.00 57.00 223.00 57.50 223.00 58.00 Z"/>
</g>
<g fill="#FEFEFE" fill-opacity="0.09" stroke="None">
<path d="
M 672.00 198.00 
C 670.37 183.73 670.77 169.82 671.00 155.00 C 671.23 140.18 670.18 127.32 671.00 112.00 C 671.82 96.68 669.05 85.48 671.00 69.00 C 672.95 52.52 653.46 56.97 640.00 57.00
C 639.38 65.48 639.49 71.74 639.00 81.00 C 638.51 90.26 639.02 101.50 639.00 111.00 C 638.98 120.50 638.60 132.72 639.00 142.00 C 639.40 151.28 637.85 163.58 639.00 172.00 C 640.15 180.42 634.66 196.37 643.00 199.00 C 651.34 201.63 663.74 197.80 672.00 198.00
M 668.00 198.00 
C 664.42 198.32 658.42 198.57 655.00 198.00 C 651.58 197.43 644.65 199.86 642.00 198.00
C 638.03 195.22 642.11 184.19 641.00 179.00 C 639.89 173.81 641.46 165.00 641.00 159.00 C 640.54 153.00 641.10 145.35 641.00 139.00 C 640.90 132.65 640.87 124.35 641.00 118.00 C 641.13 111.65 640.49 104.01 641.00 98.00 C 641.51 91.99 639.79 83.22 641.00 78.00 C 642.21 72.78 637.95 60.84 642.00 58.00
C 644.26 56.42 652.05 58.14 655.00 58.00 C 657.95 57.86 665.29 56.80 668.00 58.00
C 671.08 58.89 668.32 69.94 669.00 74.00 C 669.68 78.06 668.71 86.90 669.00 92.00 C 669.29 97.10 668.90 104.47 669.00 110.00 C 669.10 115.53 669.02 122.35 669.00 128.00 C 668.98 133.65 669.17 139.35 669.00 145.00 C 668.83 150.65 669.40 157.48 669.00 163.00 C 668.60 168.52 669.91 175.92 669.00 181.00 C 668.09 186.08 671.48 194.65 668.00 198.00 Z"/>
</g>
<g fill="#0073E6" fill-opacity="0.97" stroke="None">
<path d="
M 251.00 197.00 
C 250.41 179.40 248.34 159.30 250.00 141.00
C 246.32 144.56 250.03 153.67 249.00 159.00 C 247.97 164.33 249.54 172.19 249.00 178.00 C 248.46 183.81 249.40 191.06 249.00 197.00
C 240.67 197.00 232.33 197.00 224.00 197.00
C 224.00 151.00 224.00 105.00 224.00 59.00
C 250.00 59.00 276.00 59.00 302.00 59.00
C 302.00 66.33 302.00 73.67 302.00 81.00
C 293.40 81.68 281.24 80.09 273.00 81.00 C 264.76 81.91 248.95 76.78 249.00 87.00 C 249.05 97.23 248.13 106.78 250.00 116.00
C 249.59 111.50 249.41 103.21 250.00 99.00 C 250.59 94.79 247.74 84.29 251.00 82.00
C 253.52 80.24 263.78 82.00 267.00 82.00
C 278.84 82.00 291.22 80.94 303.00 82.00
C 303.00 74.00 303.00 66.00 303.00 58.00
C 298.51 54.86 288.67 59.45 283.00 58.00 C 277.33 56.55 269.20 58.73 263.00 58.00 C 256.80 57.27 249.41 58.49 243.00 58.00 C 236.59 57.51 229.46 58.58 223.00 58.00
C 223.00 104.67 223.00 151.33 223.00 198.00
C 227.14 197.40 234.14 198.80 238.00 198.00 C 241.86 197.20 248.84 200.09 251.00 197.00 Z"/>
</g>
<g fill="#D6E9FA" fill-opacity="0.64" stroke="None">
<path d="
M 303.00 82.00 
C 304.74 79.65 304.30 73.09 304.00 70.00 C 303.70 66.91 305.53 59.77 303.00 58.00
C 303.00 66.00 303.00 74.00 303.00 82.00 Z"/>
</g>
<g fill="#A2D1F5" fill-opacity="0.51" stroke="None">
<path d="
M 642.00 198.00 
C 642.00 151.33 642.00 104.67 642.00 58.00
C 637.95 60.84 642.21 72.78 641.00 78.00 C 639.79 83.22 641.51 91.99 641.00 98.00 C 640.49 104.01 641.13 111.65 641.00 118.00 C 640.87 124.35 640.90 132.65 641.00 139.00 C 641.10 145.35 640.54 153.00 641.00 159.00 C 641.46 165.00 639.89 173.81 641.00 179.00 C 642.11 184.19 638.03 195.22 642.00 198.00 Z"/>
</g>
<g fill="#0072E6" fill-opacity="0.98" stroke="None">
<path d="
M 642.00 198.00 
C 644.65 199.86 651.58 197.43 655.00 198.00 C 658.42 198.57 664.42 198.32 668.00 198.00
C 668.04 198.00 668.00 197.00 668.00 197.00
C 659.73 196.25 651.28 197.56 643.00 197.00
C 643.00 151.00 643.00 105.00 643.00 59.00
C 651.26 59.61 660.18 57.74 668.00 60.00
C 668.00 59.50 668.19 58.08 668.00 58.00
C 665.29 56.80 657.95 57.86 655.00 58.00 C 652.05 58.14 644.26 56.42 642.00 58.00
C 642.00 104.67 642.00 151.33 642.00 198.00 Z"/>
</g>
<g fill="#0078E7" fill-opacity="0.85" stroke="None">
<path d="
M 668.00 60.00 
C 668.00 105.67 667.95 151.33 668.00 197.00
C 668.00 197.00 668.04 198.00 668.00 198.00
C 671.48 194.65 668.09 186.08 669.00 181.00 C 669.91 175.92 668.60 168.52 669.00 163.00 C 669.40 157.48 668.83 150.65 669.00 145.00 C 669.17 139.35 668.98 133.65 669.00 128.00 C 669.02 122.35 669.10 115.53 669.00 110.00 C 668.90 104.47 669.29 97.10 669.00 92.00 C 668.71 86.90 669.68 78.06 669.00 74.00 C 668.32 69.94 671.08 58.89 668.00 58.00
C 668.19 58.08 668.00 59.50 668.00 60.00 Z"/>
</g>
<g fill="#1E8EEA" fill-opacity="1.00" stroke="None">
<path d="
M 250.00 141.00 
C 250.26 140.75 251.00 141.00 251.00 141.00
C 266.33 141.00 281.67 141.00 297.00 141.00
C 296.29 133.12 296.29 123.88 297.00 116.00
C 281.67 116.00 266.33 116.00 251.00 116.00
C 250.50 116.00 250.00 116.00 250.00 116.00
C 248.13 106.78 249.05 97.23 249.00 87.00 C 248.95 76.78 264.76 81.91 273.00 81.00 C 281.24 80.09 293.40 81.68 302.00 81.00
C 302.00 73.67 302.00 66.33 302.00 59.00
C 276.00 59.00 250.00 59.00 224.00 59.00
C 224.00 105.00 224.00 151.00 224.00 197.00
C 232.33 197.00 240.67 197.00 249.00 197.00
C 249.40 191.06 248.46 183.81 249.00 178.00 C 249.54 172.19 247.97 164.33 249.00 159.00 C 250.03 153.67 246.32 144.56 250.00 141.00 Z"/>
</g>
<g fill="#1E8EE9" fill-opacity="1.00" stroke="None">
<path d="
M 668.00 197.00 
C 667.95 151.33 668.00 105.67 668.00 60.00
C 660.18 57.74 651.26 59.61 643.00 59.00
C 643.00 105.00 643.00 151.00 643.00 197.00
C 651.28 197.56 659.73 196.25 668.00 197.00 Z"/>
</g>
<g fill="#0073E5" fill-opacity="1.00" stroke="None">
<path d="
M 83.00 71.00 
C 91.58 70.22 100.39 71.34 109.00 71.00
C 110.87 70.61 113.86 71.87 115.00 70.00
C 109.88 69.78 100.72 70.29 96.00 70.00 C 91.28 69.71 80.75 70.16 83.00 71.00 Z"/>
</g>
<g fill="#A8D5F7" fill-opacity="0.87" stroke="None">
<path d="
M 83.00 72.00 
C 84.67 71.99 86.33 72.00 88.00 72.00
C 90.00 72.00 92.00 72.00 94.00 72.00
C 99.00 72.00 104.00 72.00 109.00 72.00
C 109.00 72.00 109.02 71.00 109.00 71.00
C 100.39 71.34 91.58 70.22 83.00 71.00
C 83.00 71.00 82.85 71.95 83.00 72.00 Z"/>
</g>
<g fill="#54A7EE" fill-opacity="0.82" stroke="None">
<path d="
M 250.00 116.00 
C 250.00 116.00 250.50 116.00 251.00 116.00
C 252.02 104.76 250.24 93.26 251.00 82.00
C 247.74 84.29 250.59 94.79 250.00 99.00 C 249.41 103.21 249.59 111.50 250.00 116.00 Z"/>
</g>
<g fill="#FCFDFE" fill-opacity="0.09" stroke="None">
<path d="
M 251.00 116.00 
C 266.33 116.00 281.67 116.00 297.00 116.00
C 297.50 116.00 298.00 116.00 298.00 116.00
C 300.69 118.60 300.09 138.18 298.00 141.00
C 298.00 141.00 298.04 142.00 298.00 142.00
C 299.14 141.97 299.72 140.47 301.00 141.00
C 299.44 130.79 305.93 113.05 291.00 115.00 C 276.07 116.95 267.36 113.54 253.00 115.00
C 253.00 104.33 253.00 93.67 253.00 83.00
C 257.67 83.00 262.33 83.00 267.00 83.00
C 266.96 83.00 267.00 82.00 267.00 82.00
C 263.78 82.00 253.52 80.24 251.00 82.00
C 250.24 93.26 252.02 104.76 251.00 116.00 Z"/>
</g>
<g fill="#DFEFFB" fill-opacity="0.22" stroke="None">
<path d="
M 267.00 83.00 
C 278.84 83.00 291.22 84.06 303.00 83.00
C 303.00 83.00 302.76 82.32 303.00 82.00
C 291.22 80.94 278.84 82.00 267.00 82.00
C 267.00 82.00 266.96 83.00 267.00 83.00 Z"/>
</g>
<g fill="#F4FAFE" fill-opacity="0.19" stroke="None">
<path d="
M 125.00 102.00 
C 124.87 102.04 125.00 103.00 125.00 103.00
C 136.87 102.06 148.13 97.51 158.00 91.00
C 157.89 107.54 153.80 124.60 141.25 136.25 C 128.70 147.90 110.69 152.67 93.00 150.00 C 75.31 147.33 53.09 155.55 57.33 175.67 C 61.57 195.79 67.05 204.06 72.00 223.00
C 73.10 231.22 71.61 239.07 68.00 246.00
L 72.00 246.00
C 78.46 232.12 71.72 214.50 67.32 201.68 C 62.92 188.86 53.34 169.66 63.75 157.75 C 74.16 145.84 97.86 153.20 111.78 150.78 C 125.70 148.36 139.02 144.17 148.08 132.08 C 157.13 119.98 160.98 105.51 160.00 90.00
C 148.20 93.63 137.96 100.97 125.00 102.00 Z"/>
</g>
<g fill="#1E8DE9" fill-opacity="0.99" stroke="None">
<path d="
M 125.00 103.00 
C 107.46 104.39 89.51 101.31 72.00 103.00
C 28.21 107.24 4.65 156.67 28.00 194.00
C 34.44 201.84 41.35 209.63 49.25 216.75 C 57.14 223.88 62.50 234.16 69.00 241.00
C 72.05 235.64 69.81 228.20 72.00 223.00
C 67.05 204.06 61.57 195.79 57.33 175.67 C 53.09 155.55 75.31 147.33 93.00 150.00 C 110.69 152.67 128.70 147.90 141.25 136.25 C 153.80 124.60 157.89 107.54 158.00 91.00
C 148.13 97.51 136.87 102.06 125.00 103.00 Z"/>
</g>
<g fill="#F7FBFE" fill-opacity="0.13" stroke="None">
<path d="
M 419.00 92.00 
C 373.25 85.46 342.80 130.90 359.07 169.93 C 375.35 208.95 427.44 212.27 453.23 181.23 C 479.02 150.19 458.80 97.69 419.00 92.00
M 462.00 141.00 
C 462.57 144.98 462.56 149.09 462.00 153.00
C 460.52 191.66 411.75 213.96 380.31 192.70 C 348.86 171.43 348.11 123.48 379.75 101.75 C 411.38 80.01 460.49 101.34 462.00 141.00 Z"/>
</g>
<g fill="#1E8CE9" fill-opacity="0.98" stroke="None">
<path d="
M 462.00 153.00 
C 462.15 149.04 462.15 144.96 462.00 141.00
C 460.49 101.34 411.38 80.01 379.75 101.75 C 348.11 123.48 348.86 171.43 380.31 192.70 C 411.75 213.96 460.52 191.66 462.00 153.00
M 383.00 152.00 
C 382.99 151.50 383.00 151.00 383.00 151.00
C 381.40 148.84 381.44 144.11 383.00 142.00
C 383.00 141.50 383.00 141.00 383.00 141.00
C 386.72 121.08 409.02 108.35 425.25 121.75 C 441.47 135.15 440.49 159.70 424.92 172.92 C 409.34 186.13 383.48 172.48 383.00 152.00 Z"/>
</g>
<g fill="#D4E9FA" fill-opacity="0.51" stroke="None">
<path d="
M 691.00 94.00 
C 691.25 94.25 691.00 95.00 691.00 95.00
C 692.30 95.45 694.61 95.00 696.00 95.00
C 696.15 94.95 696.00 94.00 696.00 94.00
C 693.79 93.82 693.06 92.19 691.00 94.00 Z"/>
</g>
<g fill="#FCFDFE" fill-opacity="0.20" stroke="None">
<path d="
M 710.00 94.00 
C 711.48 94.13 712.14 93.69 713.00 95.00
C 714.76 97.67 712.27 103.81 715.00 106.00
C 715.81 105.29 716.29 103.73 717.00 103.00
C 714.45 101.20 717.02 98.07 715.75 95.25 C 714.48 92.43 711.51 93.97 710.00 94.00 Z"/>
</g>
<g fill="#FCFDFE" fill-opacity="0.11" stroke="None">
<path d="
M 718.00 102.00 
C 718.41 101.81 719.00 102.00 719.00 102.00
C 739.17 89.46 769.17 90.24 779.00 115.00
C 780.65 119.15 782.09 123.30 783.00 128.00
C 784.25 134.47 784.57 143.91 784.00 151.00 C 783.43 158.09 785.32 168.48 784.00 175.00 C 782.68 181.52 787.43 193.72 783.00 198.00
C 782.74 198.25 782.00 198.00 782.00 198.00
C 778.57 198.00 773.23 198.67 770.00 198.00 C 766.77 197.33 760.53 199.77 758.00 198.00
C 753.87 195.11 758.22 183.38 757.00 178.00 C 755.78 172.62 757.59 163.16 757.00 157.00 C 756.41 150.84 757.35 142.37 757.00 136.00
C 756.86 133.45 756.86 131.35 756.00 129.00
C 751.70 121.83 744.47 116.38 736.00 117.00 C 727.53 117.62 717.10 120.38 716.00 130.00
C 716.61 136.84 716.20 146.34 716.00 153.00 C 715.81 159.66 717.13 170.20 716.00 176.00 C 714.87 181.80 719.30 194.99 715.00 198.00
C 712.80 199.54 704.78 197.78 702.00 198.00 C 699.22 198.22 690.54 199.20 689.00 197.00
C 685.86 192.51 690.25 182.81 689.00 177.00 C 687.75 171.19 689.39 162.32 689.00 156.00 C 688.61 149.68 688.79 141.38 689.00 135.00 C 689.21 128.62 688.06 120.02 689.00 114.00 C 689.94 107.98 686.22 98.69 690.00 94.00
C 689.00 94.00 688.00 94.00 687.00 94.00
C 687.17 102.55 686.77 111.49 687.00 120.00 C 687.23 128.51 686.54 136.53 687.00 145.00 C 687.46 153.47 686.01 161.49 687.00 170.00 C 687.99 178.51 684.80 186.31 687.01 194.99 C 689.22 203.66 699.19 195.96 708.00 199.00 C 716.81 202.04 719.47 191.82 717.78 184.22 C 716.09 176.62 718.00 169.62 717.22 162.22 C 716.43 154.82 717.02 145.57 717.01 138.01 C 716.99 130.44 718.87 124.66 724.92 120.92 C 730.98 117.19 738.54 117.00 744.92 120.08 C 751.29 123.16 753.31 128.55 754.67 135.33 C 756.03 142.11 753.57 152.29 754.07 158.93 C 754.58 165.56 754.39 172.06 755.00 179.00 C 755.61 185.94 751.47 198.66 760.00 199.00 C 768.53 199.34 776.52 198.75 785.00 199.00
C 785.25 184.89 784.66 166.70 785.00 153.00 C 785.34 139.30 785.92 123.23 780.77 112.23 C 775.62 101.23 764.98 94.20 754.00 93.00 C 743.02 91.80 723.92 92.07 718.00 102.00 Z"/>
</g>
<g fill="#F8FBFE" fill-opacity="0.16" stroke="None">
<path d="
M 494.00 95.00 
C 486.09 94.01 473.99 92.98 466.01 94.01 C 458.03 95.04 465.91 106.89 467.08 112.92 C 468.25 118.95 472.33 127.27 474.02 133.98 C 475.71 140.69 479.53 148.79 481.02 155.98 C 482.52 163.16 486.04 169.88 488.07 176.93 C 490.11 183.97 492.43 191.80 494.00 199.00
C 503.23 199.58 511.69 198.23 521.00 199.00 C 530.30 199.77 529.39 189.45 531.68 182.68 C 533.97 175.91 535.74 168.90 538.07 162.07 C 540.41 155.25 543.29 148.34 544.00 141.00
C 549.76 149.77 549.95 163.17 554.69 172.31 C 559.44 181.44 558.00 197.15 569.00 199.00 C 580.00 200.85 598.00 200.77 599.00 188.00 C 600.00 175.23 606.83 167.64 609.01 156.01 C 611.19 144.38 616.19 135.98 619.01 125.01 C 621.83 114.04 626.43 104.93 629.00 94.00
C 621.28 95.76 607.10 91.64 600.03 94.03 C 592.96 96.42 595.48 107.91 591.98 113.98 C 588.47 120.04 587.65 129.27 584.98 135.98 C 582.30 142.68 582.07 151.63 579.00 158.00
C 575.15 149.51 573.25 142.75 570.93 133.07 C 568.61 123.40 565.33 119.79 563.32 108.68 C 561.32 97.57 557.53 93.83 545.00 94.00 C 532.47 94.17 529.42 97.37 527.32 108.32 C 525.22 119.27 522.30 124.02 519.31 133.31 C 516.31 142.60 514.67 148.10 510.00 156.00
C 506.05 135.21 496.73 116.02 494.00 95.00
M 513.00 161.00 
C 513.93 158.69 515.42 155.11 516.00 153.00
C 516.93 146.62 519.49 139.63 521.78 133.78 C 524.07 127.92 524.50 119.56 527.33 114.33 C 530.16 109.09 529.57 99.43 534.00 96.00
C 536.40 94.15 552.89 93.34 556.00 95.00
C 560.28 97.28 559.46 107.55 561.98 112.02 C 564.49 116.50 565.31 124.42 567.32 129.68 C 569.33 134.94 571.09 141.47 572.93 147.07 C 574.76 152.68 576.59 159.18 578.00 165.00
C 586.61 142.44 592.26 118.16 600.00 95.00
C 608.67 95.00 617.33 95.00 626.00 95.00
C 624.26 106.17 618.46 114.94 616.07 126.07 C 613.69 137.21 608.56 145.49 606.07 157.07 C 603.58 168.66 598.25 175.25 596.07 188.07 C 593.90 200.89 577.53 198.72 565.00 198.00
C 558.83 176.94 552.16 155.42 545.00 135.00
C 537.84 155.46 531.00 176.86 525.00 198.00
C 515.33 198.00 505.67 198.00 496.00 198.00
C 495.52 190.66 491.45 184.07 490.02 176.98 C 488.60 169.88 484.80 163.79 483.22 156.78 C 481.65 149.77 478.44 142.17 476.68 135.32 C 474.92 128.48 471.65 121.55 470.07 114.93 C 468.50 108.30 463.47 99.33 466.00 95.00
C 468.70 93.84 475.04 94.93 478.00 95.00 C 480.96 95.07 487.47 93.65 490.00 95.00
C 494.11 97.20 493.03 107.14 495.33 111.67 C 497.63 116.21 498.88 123.91 500.78 129.22 C 502.67 134.53 504.01 141.50 505.93 147.07 C 507.85 152.65 509.64 159.17 511.00 165.00
C 512.35 164.27 511.96 162.17 513.00 161.00 Z"/>
</g>
<g fill="#73B8F1" fill-opacity="0.69" stroke="None">
<path d="
M 689.00 197.00 
C 691.25 189.53 689.43 180.24 690.00 172.00 C 690.57 163.76 689.28 154.13 690.00 146.00 C 690.72 137.87 688.65 127.66 690.00 120.00 C 691.35 112.34 686.66 100.85 691.00 95.00
C 691.00 95.00 691.25 94.25 691.00 94.00
C 691.00 94.00 690.49 94.06 690.00 94.00
C 686.22 98.69 689.94 107.98 689.00 114.00 C 688.06 120.02 689.21 128.62 689.00 135.00 C 688.79 141.38 688.61 149.68 689.00 156.00 C 689.39 162.32 687.75 171.19 689.00 177.00 C 690.25 182.81 685.86 192.51 689.00 197.00 Z"/>
</g>
<g fill="#B4D9F7" fill-opacity="0.68" stroke="None">
<path d="
M 696.00 95.00 
C 701.67 95.00 707.33 95.00 713.00 95.00
C 712.14 93.69 711.48 94.13 710.00 94.00
C 705.37 93.60 700.63 94.38 696.00 94.00
C 696.00 94.00 696.15 94.95 696.00 95.00 Z"/>
</g>
<g fill="#187EE8" fill-opacity="0.89" stroke="None">
<path d="
M 719.00 102.00 
C 718.00 103.30 716.79 104.61 716.00 106.00
C 725.66 96.63 739.36 94.79 752.07 95.93 C 764.79 97.06 774.12 106.15 779.00 115.00
C 769.17 90.24 739.17 89.46 719.00 102.00 Z"/>
</g>
<g fill="#1E8CE9" fill-opacity="0.98" stroke="None">
<path d="
M 556.00 95.00 
C 550.57 99.15 539.85 92.88 534.00 96.00
C 529.57 99.43 530.16 109.09 527.33 114.33 C 524.50 119.56 524.07 127.92 521.78 133.78 C 519.49 139.63 516.93 146.62 516.00 153.00
C 515.45 156.79 514.84 158.09 513.00 161.00
C 511.96 162.17 512.35 164.27 511.00 165.00
C 509.64 159.17 507.85 152.65 505.93 147.07 C 504.01 141.50 502.67 134.53 500.78 129.22 C 498.88 123.91 497.63 116.21 495.33 111.67 C 493.03 107.14 494.11 97.20 490.00 95.00
C 483.97 99.31 471.66 93.11 466.00 95.00
C 463.47 99.33 468.50 108.30 470.07 114.93 C 471.65 121.55 474.92 128.48 476.68 135.32 C 478.44 142.17 481.65 149.77 483.22 156.78 C 484.80 163.79 488.60 169.88 490.02 176.98 C 491.45 184.07 495.52 190.66 496.00 198.00
C 505.67 198.00 515.33 198.00 525.00 198.00
C 531.00 176.86 537.84 155.46 545.00 135.00
C 552.16 155.42 558.83 176.94 565.00 198.00
C 577.53 198.72 593.90 200.89 596.07 188.07 C 598.25 175.25 603.58 168.66 606.07 157.07 C 608.56 145.49 613.69 137.21 616.07 126.07 C 618.46 114.94 624.26 106.17 626.00 95.00
C 617.33 95.00 608.67 95.00 600.00 95.00
C 592.26 118.16 586.61 142.44 578.00 165.00
C 576.59 159.18 574.76 152.68 572.93 147.07 C 571.09 141.47 569.33 134.94 567.32 129.68 C 565.31 124.42 564.49 116.50 561.98 112.02 C 559.46 107.55 560.28 97.28 556.00 95.00 Z"/>
</g>
<g fill="#59B1F1" fill-opacity="0.98" stroke="None">
<path d="
M 490.00 95.00 
C 487.47 93.65 480.96 95.07 478.00 95.00 C 475.04 94.93 468.70 93.84 466.00 95.00
C 471.66 93.11 483.97 99.31 490.00 95.00 Z"/>
</g>
<g fill="#76BDF4" fill-opacity="0.95" stroke="None">
<path d="
M 534.00 96.00 
C 539.85 92.88 550.57 99.15 556.00 95.00
C 552.89 93.34 536.40 94.15 534.00 96.00 Z"/>
</g>
<g fill="#0974E6" fill-opacity="0.98" stroke="None">
<path d="
M 689.00 197.00 
C 690.54 199.20 699.22 198.22 702.00 198.00 C 704.78 197.78 712.80 199.54 715.00 198.00
C 716.52 175.47 712.97 152.48 715.00 130.00
C 715.34 130.23 713.19 144.54 714.00 150.00 C 714.81 155.46 713.59 166.33 714.00 173.00 C 714.41 179.67 713.70 190.00 714.00 197.00
C 706.33 197.00 698.67 197.00 691.00 197.00
C 691.00 163.33 691.00 129.67 691.00 96.00
C 698.00 96.00 705.00 96.00 712.00 96.00
C 712.00 99.67 712.00 103.33 712.00 107.00
C 712.95 105.31 714.53 107.74 715.00 106.00
C 712.27 103.81 714.76 97.67 713.00 95.00
C 707.33 95.00 701.67 95.00 696.00 95.00
C 694.61 95.00 692.30 95.45 691.00 95.00
C 686.66 100.85 691.35 112.34 690.00 120.00 C 688.65 127.66 690.72 137.87 690.00 146.00 C 689.28 154.13 690.57 163.76 690.00 172.00 C 689.43 180.24 691.25 189.53 689.00 197.00 Z"/>
</g>
<g fill="#1E8EE9" fill-opacity="1.00" stroke="None">
<path d="
M 719.00 102.00 
C 719.00 102.00 718.41 101.81 718.00 102.00
C 717.81 102.32 717.25 102.75 717.00 103.00
C 716.29 103.73 715.81 105.29 715.00 106.00
C 714.53 107.74 712.95 105.31 712.00 107.00
C 712.00 103.33 712.00 99.67 712.00 96.00
C 705.00 96.00 698.00 96.00 691.00 96.00
C 691.00 129.67 691.00 163.33 691.00 197.00
C 698.67 197.00 706.33 197.00 714.00 197.00
C 713.70 190.00 714.41 179.67 714.00 173.00 C 713.59 166.33 714.81 155.46 714.00 150.00 C 713.19 144.54 715.34 130.23 715.00 130.00
C 715.35 130.23 716.00 130.00 716.00 130.00
C 717.10 120.38 727.53 117.62 736.00 117.00 C 744.47 116.38 751.70 121.83 756.00 129.00
C 766.76 146.94 754.17 176.50 759.00 197.00
C 766.67 197.00 774.33 197.00 782.00 197.00
C 781.96 174.12 782.61 150.07 783.00 128.00
C 782.09 123.30 780.65 119.15 779.00 115.00
C 774.12 106.15 764.79 97.06 752.07 95.93 C 739.36 94.79 725.66 96.63 716.00 106.00
C 716.79 104.61 718.00 103.30 719.00 102.00 Z"/>
</g>
<g fill="#FDFEFF" fill-opacity="0.02" stroke="None">
<path d="
M 72.00 103.00 
C 89.51 101.31 107.46 104.39 125.00 103.00
C 125.00 103.00 124.87 102.04 125.00 102.00
C 107.51 103.39 88.87 101.37 72.00 103.00 Z"/>
</g>
<g fill="#F4FAFE" fill-opacity="0.18" stroke="None">
<path d="
M 63.00 246.00 
L 65.00 246.00
C 64.39 243.73 64.56 241.32 64.00 239.00
C 55.56 221.94 38.13 210.19 28.00 194.00
C 4.65 156.67 28.21 107.24 72.00 103.00
C 36.47 106.44 13.27 134.39 17.01 169.99 C 20.75 205.59 54.64 214.43 63.00 246.00 Z"/>
</g>
<g fill="#036EE5" fill-opacity="0.89" stroke="None">
<path d="
M 297.00 141.00 
C 297.00 141.00 297.75 140.75 298.00 141.00
C 298.71 133.12 298.71 123.88 298.00 116.00
C 298.00 116.00 297.50 116.00 297.00 116.00
C 296.29 123.88 296.29 133.12 297.00 141.00 Z"/>
</g>
<g fill="#D5E9F6" fill-opacity="0.56" stroke="None">
<path d="
M 298.00 141.00 
C 300.09 138.18 300.69 118.60 298.00 116.00
C 298.71 123.88 298.71 133.12 298.00 141.00 Z"/>
</g>
<g fill="#F7FBFE" fill-opacity="0.16" stroke="None">
<path d="
M 383.00 141.00 
C 385.76 143.66 383.08 149.40 383.00 152.00
C 383.48 172.48 409.34 186.13 424.92 172.92 C 440.49 159.70 441.47 135.15 425.25 121.75 C 409.02 108.35 386.72 121.08 383.00 141.00
M 414.00 117.00 
C 445.44 122.63 438.76 181.96 406.00 177.00 C 373.24 172.04 380.65 111.02 414.00 117.00 Z"/>
</g>
<g fill="#000000" fill-opacity="0.00" stroke="None">
<path d="
M 414.00 117.00 
C 380.65 111.02 373.24 172.04 406.00 177.00 C 438.76 181.96 445.44 122.63 414.00 117.00 Z"/>
</g>
<g fill="#0E86E9" fill-opacity="0.86" stroke="None">
<path d="
M 782.00 197.00 
C 782.00 197.50 782.00 198.00 782.00 198.00
C 782.00 198.00 782.74 198.25 783.00 198.00
C 785.09 174.86 781.43 151.19 783.00 128.00
C 782.61 150.07 781.96 174.12 782.00 197.00 Z"/>
</g>
<g fill="#FEFEFE" fill-opacity="0.32" stroke="None">
<path d="
M 783.00 198.00 
C 787.43 193.72 782.68 181.52 784.00 175.00 C 785.32 168.48 783.43 158.09 784.00 151.00 C 784.57 143.91 784.25 134.47 783.00 128.00
C 781.43 151.19 785.09 174.86 783.00 198.00 Z"/>
</g>
<g fill="#0170E6" fill-opacity="0.97" stroke="None">
<path d="
M 757.00 136.00 
C 760.19 155.62 756.69 177.59 758.00 198.00
C 760.53 199.77 766.77 197.33 770.00 198.00 C 773.23 198.67 778.57 198.00 782.00 198.00
C 782.00 198.00 782.00 197.50 782.00 197.00
C 774.33 197.00 766.67 197.00 759.00 197.00
C 754.17 176.50 766.76 146.94 756.00 129.00
C 756.86 131.35 756.86 133.45 757.00 136.00 Z"/>
</g>
<g fill="#C0DFF8" fill-opacity="0.65" stroke="None">
<path d="
M 715.00 198.00 
C 719.30 194.99 714.87 181.80 716.00 176.00 C 717.13 170.20 715.81 159.66 716.00 153.00 C 716.20 146.34 716.61 136.84 716.00 130.00
C 716.00 130.00 715.35 130.23 715.00 130.00
C 712.97 152.48 716.52 175.47 715.00 198.00 Z"/>
</g>
<g fill="#8EC6F4" fill-opacity="0.75" stroke="None">
<path d="
M 758.00 198.00 
C 756.69 177.59 760.19 155.62 757.00 136.00
C 757.35 142.37 756.41 150.84 757.00 157.00 C 757.59 163.16 755.78 172.62 757.00 178.00 C 758.22 183.38 753.87 195.11 758.00 198.00 Z"/>
</g>
<g fill="#59A9ED" fill-opacity="0.83" stroke="None">
<path d="
M 251.00 197.00 
C 253.88 192.88 249.80 183.23 251.00 178.00 C 252.20 172.77 250.69 164.61 251.00 159.00 C 251.31 153.39 251.51 146.64 251.00 141.00
C 251.00 141.00 250.26 140.75 250.00 141.00
C 248.34 159.30 250.41 179.40 251.00 197.00 Z"/>
</g>
<g fill="#FFFFFD" fill-opacity="0.32" stroke="None">
<path d="
M 383.00 142.00 
C 383.00 145.00 383.00 148.00 383.00 151.00
C 383.00 151.00 382.99 151.50 383.00 152.00
C 383.08 149.40 385.76 143.66 383.00 141.00
C 383.00 141.00 383.00 141.50 383.00 142.00 Z"/>
</g>
<g fill="#98CCF6" fill-opacity="0.49" stroke="None">
<path d="
M 462.00 153.00 
C 462.56 149.09 462.57 144.98 462.00 141.00
C 462.15 144.96 462.15 149.04 462.00 153.00 Z"/>
</g>
<g fill="#8BC5F4" fill-opacity="0.69" stroke="None">
<path d="
M 383.00 151.00 
C 383.00 148.00 383.00 145.00 383.00 142.00
C 381.44 144.11 381.40 148.84 383.00 151.00 Z"/>
</g>
<g fill="#2483E7" fill-opacity="0.79" stroke="None">
<path d="
M 513.00 161.00 
C 514.84 158.09 515.45 156.79 516.00 153.00
C 515.42 155.11 513.93 158.69 513.00 161.00 Z"/>
</g>
<g fill="#197DE7" fill-opacity="0.91" stroke="None">
<path d="
M 64.00 239.00 
C 65.02 241.06 67.66 243.10 67.00 246.00
L 68.00 246.00
C 71.61 239.07 73.10 231.22 72.00 223.00
C 69.81 228.20 72.05 235.64 69.00 241.00
C 62.50 234.16 57.14 223.88 49.25 216.75 C 41.35 209.63 34.44 201.84 28.00 194.00
C 38.13 210.19 55.56 221.94 64.00 239.00 Z"/>
</g>
<g fill="#F7FBFD" fill-opacity="0.49" stroke="None">
<path d="
M 65.00 246.00 
L 67.00 246.00
C 67.66 243.10 65.02 241.06 64.00 239.00
C 64.56 241.32 64.39 243.73 65.00 246.00 Z"/>
</g>
</svg>